<svg xmlns="http://www.w3.org/2000/svg" xmlns:xlink="http://www.w3.org/1999/xlink" contentStyleType="text/css" data-diagram-type="DESCRIPTION" height="1061px" preserveAspectRatio="none" style="width:1146px;height:1061px;background:#FFFFFF;" version="1.1" viewBox="0 0 1146 1061" width="1146px" zoomAndPan="magnify"><?plantuml 1.2026.3beta6?><defs><linearGradient id="gvfva2bjr25020" x1="0%" x2="100%" y1="0%" y2="100%"><stop offset="0%" stop-color="#F6F6F6"/><stop offset="100%" stop-color="#F3F3F3"/></linearGradient></defs><g><g class="title" data-source-line="285"><text fill="#444444" font-family="Helvetica" font-size="14" font-weight="700" lengthAdjust="spacing" textLength="390.7832" x="374.5482" y="22.9951">Boid Sound Engine - Audio Mapping (Signal Flow)</text></g><!--entity S--><g class="entity" data-qualified-name="S" data-source-line="289" id="ent0002"><ellipse cx="519.2" cy="59.2969" fill="#FFFFFF" rx="16" ry="16" style="stroke:#3E4681;stroke-width:3;"/><path d="M519.2,79.2969 C523.2,79.2969 526.2,79.2969 530.2,75.2969 C538.2,75.2969 546.2,83.2969 546.2,91.2969 L546.2,95.2969 C546.2,99.2969 542.2,103.2969 538.2,103.2969 L500.2,103.2969 C496.2,103.2969 492.2,99.2969 492.2,95.2969 L492.2,91.2969 C492.2,83.2969 500.2,75.2969 508.2,75.2969 C512.2,79.2969 515.2,79.2969 519.2,79.2969" fill="#FFFFFF" style="stroke:#3E4681;stroke-width:3;"/><text fill="#3E4681" font-family="Helvetica" font-size="12" lengthAdjust="spacing" textLength="41.4082" x="498.4959" y="117.4355">Swarm</text></g><!--entity OSC--><g class="entity" data-qualified-name="OSC" data-source-line="291" id="ent0003"><rect fill="url(#gvfva2bjr25020)" height="33.9688" rx="5" ry="5" style="stroke:#181818;stroke-width:1;" width="139.3027" x="449.55" y="195.2669"/><text fill="#444444" font-family="Helvetica" font-size="12" lengthAdjust="spacing" textLength="119.3027" x="459.55" y="216.4055">SwarmOSCReceiver</text></g><!--entity AGG--><g class="entity" data-qualified-name="AGG" data-source-line="292" id="ent0004"><rect fill="url(#gvfva2bjr25020)" height="33.9688" rx="5" ry="5" style="stroke:#181818;stroke-width:1;" width="114.2363" x="462.08" y="304.2369"/><text fill="#444444" font-family="Helvetica" font-size="12" lengthAdjust="spacing" textLength="94.2363" x="472.08" y="325.3755">BoidAggregator</text></g><!--entity MOD--><g class="entity" data-qualified-name="MOD" data-source-line="294" id="ent0005"><rect fill="url(#gvfva2bjr25020)" height="33.9688" rx="5" ry="5" style="stroke:#181818;stroke-width:1;" width="220.8652" x="546.77" y="532.1769"/><text fill="#444444" font-family="Helvetica" font-size="12" lengthAdjust="spacing" textLength="200.8652" x="556.77" y="553.3155">ModalBank2D (per boid x modes)</text></g><!--entity RES--><g class="entity" data-qualified-name="RES" data-source-line="295" id="ent0006"><rect fill="url(#gvfva2bjr25020)" height="33.9688" rx="5" ry="5" style="stroke:#181818;stroke-width:1;" width="197.0469" x="686.68" y="641.1469"/><text fill="#444444" font-family="Helvetica" font-size="12" lengthAdjust="spacing" textLength="177.0469" x="696.68" y="662.2855">ModalFilter (resonant modes)</text></g><!--entity ENC--><g class="entity" data-qualified-name="ENC" data-source-line="297" id="ent0007"><rect fill="url(#gvfva2bjr25020)" height="33.9688" rx="5" ry="5" style="stroke:#181818;stroke-width:1;" width="181.2383" x="27.58" y="641.1469"/><text fill="#444444" font-family="Helvetica" font-size="12" lengthAdjust="spacing" textLength="161.2383" x="37.58" y="662.2855">AmbiEncode2D (3rd order)</text></g><!--entity DEC--><g class="entity" data-qualified-name="DEC" data-source-line="298" id="ent0008"><rect fill="url(#gvfva2bjr25020)" height="33.9688" rx="5" ry="5" style="stroke:#181818;stroke-width:1;" width="222.4004" x="7" y="750.1069"/><text fill="#444444" font-family="Helvetica" font-size="12" lengthAdjust="spacing" textLength="202.4004" x="17" y="771.2455">AmbiDecode2D (stereo speakers)</text></g><!--entity OUT--><g class="entity" data-qualified-name="OUT" data-source-line="300" id="ent0009"><rect fill="url(#gvfva2bjr25020)" height="33.9688" rx="5" ry="5" style="stroke:#181818;stroke-width:1;" width="140.0234" x="48.19" y="859.0769"/><text fill="#444444" font-family="Helvetica" font-size="12" lengthAdjust="spacing" textLength="120.0234" x="58.19" y="880.2155">Audio Output Buffer</text></g><!--entity CTRL--><g class="entity" data-qualified-name="CTRL" data-source-line="301" id="ent0010"><path d="M383.2393,421.5692 C387.6673,412.6924 395.4298,414.0133 400.0843,421.3337 C406.2092,412.311 417.2203,411.5459 422.7916,421.9798 C427.5874,412.2692 433.4214,412.5163 440.9916,418.8285 C446.7233,409.1188 452.8823,408.3244 460.3529,416.997 C466.6038,407.0665 474.0521,404.7134 481.9819,415.2202 C488.8782,406.7816 494.5623,407.6175 500.5735,416.1877 C505.1983,405.5913 513.8028,403.25 522.1701,412.0127 C530.623,405.0555 537.6695,405.5536 542.0819,416.5051 C546.3549,408.0031 555.2291,406.7265 561.1239,414.6217 C568.5706,406.0582 574.8434,406.6139 580.1238,416.8152 C587.6672,408.5273 596.8841,408.5953 601.8698,419.6855 C609.586,410.8004 616.3911,410.2272 621.8269,421.8993 C626.6217,413.1078 632.5417,412.3696 638.9412,420.2521 C645.9077,410.4508 656.1527,412.8813 660.9496,422.6873 C670.9266,421.1677 674.3877,426.5461 671.6417,435.5788 C675.3488,443.8636 671.5242,451.6589 661.5807,451.089 C654.8239,461.7576 645.6252,461.4845 640.2231,449.795 C634.8931,459.719 627.6774,461.1211 619.9328,452.4264 C613.7573,460.5582 605.6384,459.6104 601.2107,450.5257 C595.9978,459.0995 588.9824,459.5464 582.3734,452.175 C575.9821,463.042 569.1375,462.4442 561.4096,453.5962 C554.4183,463.4846 546.636,462.6129 540.5081,452.6856 C535.1948,463.7308 525.8436,463.8939 519.5497,453.651 C514.6911,463.3982 506.4709,462.3579 501.4572,453.8044 C494.8909,463.4274 485.457,462.9658 481.2643,451.5287 C476.1168,461.7151 468.5645,461.3296 461.5139,453.6302 C456.661,462.7577 447.7889,462.0087 442.9625,453.6022 C434.6092,464.1981 425.7414,463.5142 420.4811,450.6396 C415.2804,460.2054 406.5547,462.173 400.4808,451.5026 C394.2729,460.029 384.9663,460.0333 380.6642,449.519 C376.0735,449.2635 375.222,446.8681 376.8883,442.9926 C372.6389,442.7677 370.5545,439.5538 373.5626,435.9175 C371.44,432.4076 371.9672,429.8971 376.1205,428.5728 C374.6945,423.26 378.2476,420.3588 383.2393,421.5692" fill="#F1F1F1" style="stroke:#181818;stroke-width:0.5;"/><text fill="#444444" font-family="Helvetica" font-size="12" lengthAdjust="spacing" textLength="264.6973" x="386.85" y="439.3455">Control Signals (TRIGGER / FREQ / DENSITY)</text></g><!--entity DAC--><g class="entity" data-qualified-name="DAC" data-source-line="333" id="ent0030"><ellipse cx="118.2" cy="987.0469" fill="#FFFFFF" rx="16" ry="16" style="stroke:#3E4681;stroke-width:3;"/><path d="M118.2,1007.0469 C122.2,1007.0469 125.2,1007.0469 129.2,1003.0469 C137.2,1003.0469 145.2,1011.0469 145.2,1019.0469 L145.2,1023.0469 C145.2,1027.0469 141.2,1031.0469 137.2,1031.0469 L99.2,1031.0469 C95.2,1031.0469 91.2,1027.0469 91.2,1023.0469 L91.2,1019.0469 C91.2,1011.0469 99.2,1003.0469 107.2,1003.0469 C111.2,1007.0469 114.2,1007.0469 118.2,1007.0469" fill="#FFFFFF" style="stroke:#3E4681;stroke-width:3;"/><text fill="#3E4681" font-family="Helvetica" font-size="12" lengthAdjust="spacing" textLength="25.8281" x="105.2859" y="1045.1855">DAC</text></g><!--link S to OSC--><g class="link" data-entity-1="ent0002" data-entity-2="ent0003" data-link-type="dependency" data-source-line="303" id="lnk11"><path d="M519.2,120.6269 C519.2,145.5869 519.2,170.5469 519.2,189.0569" fill="none" id="S-to-OSC" style="stroke:#999999;stroke-width:1;"/><polygon fill="#999999" points="519.2,195.0569,523.2,186.0569,519.2,190.0569,515.2,186.0569,519.2,195.0569" style="stroke:#999999;stroke-width:1;"/><text fill="#444444" font-family="Helvetica" font-size="12" lengthAdjust="spacing" textLength="201.4043" x="520.2" y="162.4055">OSC packets (position + velocity)</text></g><!--link OSC to AGG--><g class="link" data-entity-1="ent0003" data-entity-2="ent0004" data-link-type="dependency" data-source-line="305" id="lnk12"><path d="M519.2,229.4969 C519.2,249.6069 519.2,277.6469 519.2,297.8169" fill="none" id="OSC-to-AGG" style="stroke:#999999;stroke-width:1;"/><polygon fill="#999999" points="519.2,303.8169,523.2,294.8169,519.2,298.8169,515.2,294.8169,519.2,303.8169" style="stroke:#999999;stroke-width:1;"/><text fill="#444444" font-family="Helvetica" font-size="12" lengthAdjust="spacing" textLength="100.6289" x="520.2" y="271.3755">Boid struct array</text></g><!--link AGG to AGG--><g class="link" data-entity-1="ent0004" data-entity-2="ent0004" data-link-type="dependency" data-source-line="307" id="lnk13"><path d="M576.77,317.8169 C595.97,317.8169 611.32,318.9469 611.32,321.2169 C611.32,323.4869 601.97,324.6269 582.77,324.6269" fill="none" id="AGG-to-AGG" style="stroke:#999999;stroke-width:1;"/><polygon fill="#999999" points="576.77,324.6269,585.77,328.6269,581.77,324.6269,585.77,320.6269,576.77,324.6269" style="stroke:#999999;stroke-width:1;"/><text fill="#444444" font-family="Helvetica" font-size="12" lengthAdjust="spacing" textLength="127.916" x="617.32" y="325.8555">spatialPos (R9 -&gt; R3)</text></g><!--link AGG to AGG--><g class="link" data-entity-1="ent0004" data-entity-2="ent0004" data-link-type="dependency" data-source-line="308" id="lnk14"><path d="M576.54,315.9569 C647.44,312.7569 750.32,314.5169 750.32,321.2169 C750.32,327.9269 653.4339,329.9466 582.5339,326.7566" fill="none" id="AGG-to-AGG-1" style="stroke:#999999;stroke-width:1;"/><polygon fill="#999999" points="576.54,326.4869,585.3511,330.8874,581.5349,326.7116,585.7107,322.8954,576.54,326.4869" style="stroke:#999999;stroke-width:1;"/><text fill="#444444" font-family="Helvetica" font-size="12" lengthAdjust="spacing" textLength="119.2441" x="756.32" y="325.8555">density + meanDist</text></g><!--link AGG to AGG--><g class="link" data-entity-1="ent0004" data-entity-2="ent0004" data-link-type="dependency" data-source-line="309" id="lnk15"><path d="M576.52,314.7469 C682.8,308.1269 881.32,310.2869 881.32,321.2169 C881.32,332.1569 688.7884,334.6799 582.5084,328.0599" fill="none" id="AGG-to-AGG-2" style="stroke:#999999;stroke-width:1;"/><polygon fill="#999999" points="576.52,327.6869,585.2539,332.2386,581.5103,327.9977,585.7513,324.2541,576.52,327.6869" style="stroke:#999999;stroke-width:1;"/><text fill="#444444" font-family="Helvetica" font-size="12" lengthAdjust="spacing" textLength="103.0488" x="887.32" y="325.8555">wrapped velocity</text></g><!--link AGG to CTRL--><g class="link" data-entity-1="ent0004" data-entity-2="ent0010" data-link-type="dependency" data-source-line="311" id="lnk16"><path d="M519.2,338.2669 C519.2,357.8569 519.2,385.0669 519.2,406.8069" fill="none" id="AGG-to-CTRL" style="stroke:#999999;stroke-width:1;"/><polygon fill="#999999" points="519.2,412.8069,523.2,403.8069,519.2,407.8069,515.2,403.8069,519.2,412.8069" style="stroke:#999999;stroke-width:1;"/><text fill="#444444" font-family="Helvetica" font-size="12" lengthAdjust="spacing" textLength="208.916" x="520.2" y="380.3455">density / distance / motion metrics</text></g><!--link CTRL to MOD--><g class="link" data-entity-1="ent0010" data-entity-2="ent0005" data-link-type="dependency" data-source-line="313" id="lnk17"><path d="M511.88,457.4669 C508.48,471.4569 506.97,489.4569 516.2,502.1769 C525.8,515.4069 533.8622,522.4144 548.7522,529.2144" fill="none" id="CTRL-to-MOD" style="stroke:#999999;stroke-width:1;"/><polygon fill="#999999" points="554.21,531.7069,547.685,524.3296,549.6618,529.6298,544.3617,531.6067,554.21,531.7069" style="stroke:#999999;stroke-width:1;"/><text fill="#444444" font-family="Helvetica" font-size="12" lengthAdjust="spacing" textLength="293.8301" x="517.2" y="499.3155">frequency mapping (baseline + density + radial)</text></g><!--link CTRL to MOD--><g class="link" data-entity-1="ent0010" data-entity-2="ent0005" data-link-type="dependency" data-source-line="314" id="lnk18"><path d="M666.82,444.1069 C730.67,450.9169 795.34,463.5969 815.2,487.1769 C836.99,513.0369 813.1712,526.6839 773.8812,535.2839" fill="none" id="CTRL-to-MOD-1" style="stroke:#999999;stroke-width:1;"/><polygon fill="#999999" points="768.02,536.5669,777.6671,538.55,772.9044,535.4978,775.9566,530.735,768.02,536.5669" style="stroke:#999999;stroke-width:1;"/><text fill="#444444" font-family="Helvetica" font-size="12" lengthAdjust="spacing" textLength="242.0566" x="822.2" y="499.3155">amplitude shaping (decay + brightness)</text></g><!--link CTRL to MOD--><g class="link" data-entity-1="ent0010" data-entity-2="ent0005" data-link-type="dependency" data-source-line="315" id="lnk19"><path d="M371.6,444.6369 C320.71,453.1169 282.81,469.7569 311.2,502.1769 C326.72,519.8969 445.069,532.5795 540.289,540.1795" fill="none" id="CTRL-to-MOD-2" style="stroke:#999999;stroke-width:1;"/><polygon fill="#999999" points="546.27,540.6569,537.6168,535.9535,541.2859,540.2591,536.9803,543.9281,546.27,540.6569" style="stroke:#999999;stroke-width:1;"/><text fill="#444444" font-family="Helvetica" font-size="12" lengthAdjust="spacing" textLength="188.5488" x="312.2" y="499.3155">excitation rate (trigger system)</text></g><!--link AGG to MOD--><g class="link" data-entity-1="ent0004" data-entity-2="ent0005" data-link-type="dependency" data-source-line="317" id="lnk20"><path d="M576.38,330.3069 C705.9,349.9569 1014.92,404.7069 1073.2,487.1769 C1077.05,492.6169 1077.65,497.2069 1073.2,502.1769 C1053.1,524.6169 890.3817,536.971 774.0917,543.101" fill="none" id="AGG-to-MOD" style="stroke:#999999;stroke-width:1;"/><polygon fill="#999999" points="768.1,543.4169,777.2981,546.9376,773.0931,543.1537,776.877,538.9487,768.1,543.4169" style="stroke:#999999;stroke-width:1;"/><text fill="#444444" font-family="Helvetica" font-size="12" lengthAdjust="spacing" textLength="90.6797" x="1040.2" y="439.8255">exciteSource(i)</text></g><!--link MOD to RES--><g class="link" data-entity-1="ent0005" data-entity-2="ent0006" data-link-type="dependency" data-source-line="319" id="lnk21"><path d="M699.48,566.4369 C715.31,573.8869 732.71,583.8369 746.2,596.1469 C760.04,608.7569 768.2775,621.99 775.0075,635.33" fill="none" id="MOD-to-RES" style="stroke:#999999;stroke-width:1;"/><polygon fill="#999999" points="777.71,640.6869,777.2275,630.8498,775.4579,636.2228,770.0849,634.4532,777.71,640.6869" style="stroke:#999999;stroke-width:1;"/><text fill="#444444" font-family="Helvetica" font-size="12" lengthAdjust="spacing" textLength="219.6621" x="760.2" y="608.2855">modal synthesis (sum of resonators)</text></g><!--link RES to MOD--><g class="link" data-entity-1="ent0006" data-entity-2="ent0005" data-link-type="dependency" data-source-line="320" id="lnk22"><path d="M688.21,640.6969 C673.29,633.9269 659.71,624.4269 650.2,611.1469 C640.96,598.2269 642.7825,585.3194 647.6425,572.0794" fill="none" id="RES-to-MOD" style="stroke:#999999;stroke-width:1;"/><polygon fill="#999999" points="649.71,566.4469,642.8537,573.5173,647.9871,571.1406,650.3637,576.274,649.71,566.4469" style="stroke:#999999;stroke-width:1;"/><text fill="#444444" font-family="Helvetica" font-size="12" lengthAdjust="spacing" textLength="86.543" x="651.2" y="608.2855">boidOutputs[i]</text></g><!--link AGG to ENC--><g class="link" data-entity-1="ent0004" data-entity-2="ent0007" data-link-type="dependency" data-source-line="322" id="lnk23"><path d="M461.79,333.1369 C382.93,351.1669 242.03,394.7869 164.2,487.1769 C125.7,532.8769 119.3513,601.8893 118.4113,634.7993" fill="none" id="AGG-to-ENC" style="stroke:#999999;stroke-width:1;"/><polygon fill="#999999" points="118.24,640.7969,122.4953,631.9147,118.3828,635.7989,114.4986,631.6863,118.24,640.7969" style="stroke:#999999;stroke-width:1;"/><text fill="#444444" font-family="Helvetica" font-size="12" lengthAdjust="spacing" textLength="129.0293" x="165.2" y="499.3155">normalizedPos (x,y,z)</text></g><!--link MOD to ENC--><g class="link" data-entity-1="ent0005" data-entity-2="ent0007" data-link-type="dependency" data-source-line="324" id="lnk24"><path d="M574.16,566.6369 C472.73,586.7669 308.0552,619.4489 206.7752,639.5489" fill="none" id="MOD-to-ENC" style="stroke:#999999;stroke-width:1;"/><polygon fill="#999999" points="200.89,640.7169,210.4965,642.8884,205.7944,639.7436,208.9392,635.0414,200.89,640.7169" style="stroke:#999999;stroke-width:1;"/><text fill="#444444" font-family="Helvetica" font-size="12" lengthAdjust="spacing" textLength="86.7246" x="421.2" y="608.2855">audio per boid</text></g><!--link ENC to ENC--><g class="link" data-entity-1="ent0007" data-entity-2="ent0007" data-link-type="dependency" data-source-line="326" id="lnk25"><path d="M209.1,654.8169 C229.19,655.1269 243.82,656.2269 243.82,658.1269 C243.82,660.0269 235.1893,661.0343 215.0993,661.3443" fill="none" id="ENC-to-ENC" style="stroke:#999999;stroke-width:1;"/><polygon fill="#999999" points="209.1,661.4369,218.1606,665.2975,214.0994,661.3597,218.0372,657.2985,209.1,661.4369" style="stroke:#999999;stroke-width:1;"/><text fill="#444444" font-family="Helvetica" font-size="12" lengthAdjust="spacing" textLength="127.5059" x="249.82" y="662.7655">azimuth = atan2(x,z)</text></g><!--link ENC to ENC--><g class="link" data-entity-1="ent0007" data-entity-2="ent0007" data-link-type="dependency" data-source-line="327" id="lnk26"><path d="M209.11,652.1069 C287.81,650.0269 382.82,652.0369 382.82,658.1269 C382.82,664.2169 293.8079,666.3862 215.1079,664.2962" fill="none" id="ENC-to-ENC-1" style="stroke:#999999;stroke-width:1;"/><polygon fill="#999999" points="209.11,664.1369,218.0006,668.3744,214.1082,664.2696,218.213,660.3772,209.11,664.1369" style="stroke:#999999;stroke-width:1;"/><text fill="#444444" font-family="Helvetica" font-size="12" lengthAdjust="spacing" textLength="124.3594" x="388.82" y="662.7655">distance attenuation</text></g><!--link ENC to ENC--><g class="link" data-entity-1="ent0007" data-entity-2="ent0007" data-link-type="dependency" data-source-line="328" id="lnk27"><path d="M209.26,650.4269 C331.13,645.3669 518.82,647.9369 518.82,658.1269 C518.82,668.3169 337.1248,671.1358 215.2548,666.0758" fill="none" id="ENC-to-ENC-2" style="stroke:#999999;stroke-width:1;"/><polygon fill="#999999" points="209.26,665.8269,218.0863,670.1968,214.2557,666.0343,218.4182,662.2037,209.26,665.8269" style="stroke:#999999;stroke-width:1;"/><text fill="#444444" font-family="Helvetica" font-size="12" lengthAdjust="spacing" textLength="102.3926" x="524.82" y="662.7655">ambisonics (7ch)</text></g><!--link ENC to DEC--><g class="link" data-entity-1="ent0007" data-entity-2="ent0008" data-link-type="dependency" data-source-line="330" id="lnk28"><path d="M118.2,675.3769 C118.2,695.4769 118.2,723.5169 118.2,743.6969" fill="none" id="ENC-to-DEC" style="stroke:#999999;stroke-width:1;"/><polygon fill="#999999" points="118.2,749.6969,122.2,740.6969,118.2,744.6969,114.2,740.6969,118.2,749.6969" style="stroke:#999999;stroke-width:1;"/><text fill="#444444" font-family="Helvetica" font-size="12" lengthAdjust="spacing" textLength="135.5391" x="119.2" y="717.2455">ambisonic frame (7ch)</text></g><!--link DEC to OUT--><g class="link" data-entity-1="ent0008" data-entity-2="ent0009" data-link-type="dependency" data-source-line="332" id="lnk29"><path d="M118.2,784.3369 C118.2,804.4469 118.2,832.4869 118.2,852.6669" fill="none" id="DEC-to-OUT" style="stroke:#999999;stroke-width:1;"/><polygon fill="#999999" points="118.2,858.6669,122.2,849.6669,118.2,853.6669,114.2,849.6669,118.2,858.6669" style="stroke:#999999;stroke-width:1;"/><text fill="#444444" font-family="Helvetica" font-size="12" lengthAdjust="spacing" textLength="77.3086" x="119.2" y="826.2155">stereo signal</text></g><!--link OUT to DAC--><g class="link" data-entity-1="ent0009" data-entity-2="ent0030" data-link-type="dependency" data-source-line="333" id="lnk31"><path d="M118.2,893.5269 C118.2,912.0369 118.2,936.7469 118.2,961.5669" fill="none" id="OUT-to-DAC" style="stroke:#999999;stroke-width:1;"/><polygon fill="#999999" points="118.2,967.5669,122.2,958.5669,118.2,962.5669,114.2,958.5669,118.2,967.5669" style="stroke:#999999;stroke-width:1;"/><text fill="#444444" font-family="Helvetica" font-size="12" lengthAdjust="spacing" textLength="54.123" x="119.2" y="935.1855">speakers</text></g><?plantuml-src rLbjKzj64FwCViN5wGUO9CL0eBZJP4QsPEE9iQbi2hJJOGxfRD-W5_Tq1fjC_dltJYztaYMJ5xx4pBJJtRtTPtUVlHVrrI_jNcSq63de0sfmXiDuWHa9USCmNltI7fYTJqBn-a3-6Y2xEkjFR2cRJgT2q7DiUoW5pMQtssmAcMDRKc8TDPk9n7ISqPMKjUHFoDeZnx9buDSdygU4juD-xsmYLQRyIJmJ-pgHlPU_HYgwxOw6Kdv6_0V2gOjppNXoCv1emuW5s5VoStCmk1tt_vRAWwPIPAB3N3GmdPwj52hiTKbpccjCW2zhua8f2PFWpy6uBuNIxiAqhFwmfy9tHiuG4dTCgtyvpiGW7_I7zktaB5dQ_FMuaSgaIKCpI5fre2nkhtFfaNHbzV_gY-9QflEfLFPCLLbtQF6DffcUYB_zwP7uIobm8pIgjN957kP8_b9ANTg9AwNks5RRbgbeMXMEUDFZQKkklh47Wz7LRSw3u-xnIRFTK1hbyxHzqcmfJSROWoJTr5pBgIN-P92BI-TYO6lexVSdfmSAlQfUgtNQFYxYJahNwdHiaMzyJqEO9noWE-pUprYq3BrEv4SCPMEdcInZqYOSZ_dQ9sYA_PXeIZSA5b48R4hKoy0_rBH154Rkd4N1vi9uZhteaOQp3Sq693dQca6gOo41PO6UUcOcOz4Z-cmW-AMEvB1BmMHEtVkGn36IZ9GokU0SP7X6J9_EGfHCYV55T-kHALxwF7NSZfX7M5OwkKL8UJSAUIeLfCXbGmobK9j3BX_JfqmknZR1I5PSuWW01j86k0Z89pCIUe1dfrqkd9eFKEf8XSBOgGDP1bC8ruvMQUuNsFD4_x8jGoj8LNcBfIgEMsAmGSNIr1M132DEKYHQ8jeaVWiURKohiIG6HGGNcC6cJXSuvAMI73RhWoTROXctDjpL098Xs02kRmf5T37vRqb2LzH8qRim258ye5Coe26fBrJHGkzDZZOtgM-Xj4lnhsgeizhMhTNp10ARPpaaBItwGC5NmQD-26qQLM7A3Cen2sUMohi7DekjhDCigk8bwZpQ5jQNB8iSBWForfkUof2yTOstgibqYCjnEFF9TsuKMxOneH_3damYlbuG3RVYOm7A0dp1Tfxjri-oetgZqXXM1tf2kK_KRjtmoHJkgdL7mRUaC6NYpFYP4uXyYFapP-3w629z_W7U5jnPcECx79ENyzY155Zalvn3E-IKhr_ENrlOOFQ27asNHncfahidVYGnt3Itdf5RZkLhTIvlENnhZkm2DBWmkrfxdpl9Iq3oxRcAjPktk5ekvq-T2XFzXfU_EAliP64Rb6EVkerYbl9a-9eBMDNvKftGnYsiL9-3Ka6t-Tro-7tZSGO6FfneD0f_U0_GhsSSv_TNatD6xvPSRvzwgnIqzPtxdftr-GTBrSD4OyOTxEsDb3Xm6rP9sqCfjNCqZcqLougXf0_P9bDNqTg3OFjDiurPeOoLWIsAuNtgrOrfWH3FKhLKA_K5fdGfVwI1ZqCYdskRhL09rBqSH5dbGLSAg7tpoIngDnwrNczYwTu4Jnj1-Vhk96XsQZgqKtcgxdpL6--FME3wQ1W13Rq0Bw1HCm5AGAcuIvvZDgCXIZza6U8r4f9DAcqoNDYLfiqHqDpAJmi8XP6tzKgx0GIXiuZH9mYC_UgNVF9uoc5e0rcTnDUE-TOy1D8L3PR15VNu71qqcvlV0dOKFxGlbh3uY-pGVjOYWmio0KEeXyOYA8my586WTyXSUZI2K8k5gDJk6FB7FkhwqUEUKVy5YMMF1yF0yeWVFs86GnkZiM7aIjIGuj6u0uyDGXy8QmWJ-6_THg0oPpD6PXWyIGkprokuEOyyxBTnU7zeeTq5LEjEPB920VGwtfDBpaVMneekzU6WHBiChXoXUFzhzevTH6e6TzGENJ0GCOwOX-J89CRsi5EsjKXc6yl36CKBWky9IzrRTgVeNfPvjEIB9KVjvNIQrU9oOhX-jFHG8xiU9Ys8qUx4wVTwjeFsKTUn_uH_MVPmt9_S914w4sTW66Fqxjr7KL7qk_odU4eH3eiNKPni3M_G0_4Z5xPIQAWm4GkWmB10yY7cREboX1d3QyCG2cKGBp2dsB-8mA7JGY1tZlPADXu9Ot50l441mQ55OruoU6H0BkBbC5GGaOBcOHzvi1gBho7xq2g9FY1mhBgnOKXRiGWQ3MkcBFbmiaP1HbrnMVS5gTzec1Zs886zyd8SB7pAbx1Jn7ESBFVWEYXMt34wctCnpnkho0hmOucBYNl1Bc2RpO1XyHf84Eofp3Hx0WF7NB9BGIt4GWta0tKWE0fhGpudCOKInyi0HLEKq1Lc0H08I-LGq3xXKFmF_LU50tw2Dlc_573QUB9XgxVhjqzQqCG8Io9cCsGOGgffds37WTtc0uBNJtW8Fi13qIJl4UQSX4jPZh8Nc0z80Vg6Tdzpvtig2eo5ha-VpQcHK4esNqu4zzAnajDW29bqO7OaBvDP-ny0?></g></svg>