<svg xmlns="http://www.w3.org/2000/svg" xmlns:xlink="http://www.w3.org/1999/xlink" contentStyleType="text/css" data-diagram-type="SEQUENCE" height="1220px" preserveAspectRatio="none" style="width:1502px;height:1220px;background:#FFFFFF;" version="1.1" viewBox="0 0 1502 1220" width="1502px" zoomAndPan="magnify"><?plantuml 1.2026.3beta6?><defs/><g><g class="title" data-source-line="285"><text fill="#444444" font-family="Helvetica" font-size="14" font-weight="700" lengthAdjust="spacing" textLength="311.8691" x="591.751" y="27.9951">Boid Sound Engine - Runtime Sequence</text></g><rect fill="#F9F9F9" height="549.4375" rx="5" ry="5" style="stroke:#6998B5;stroke-width:1;" width="1077.9873" x="408.3838" y="567.8906"/><rect fill="#F9F9F9" height="437.5313" rx="5" ry="5" style="stroke:#6998B5;stroke-width:1;" width="1057.9873" x="418.3838" y="672.7969"/><rect fill="#F9F9F9" height="43.9375" rx="5" ry="5" style="stroke:#6998B5;stroke-width:1;" width="600.1377" x="428.3838" y="736.7344"/><rect fill="#F9F9F9" height="99.875" rx="5" ry="5" style="stroke:#6998B5;stroke-width:1;" width="755.9893" x="428.3838" y="863.6094"/><g class="participant-lifeline" data-entity-uid="part1" data-qualified-name="OSC" data-source-line="287" id="part1-lifeline"><g><title>SwarmSource</title><rect fill="#000000" fill-opacity="0.00000" height="1012.0625" width="8" x="45.4434" y="122.2656"/><line style="stroke:#6998B5;stroke-width:0.5;stroke-dasharray:5,5;" x1="49" x2="49" y1="122.2656" y2="1134.3281"/></g></g><g class="participant-lifeline" data-entity-uid="part2" data-qualified-name="Receiver" data-source-line="288" id="part2-lifeline"><g><title>SwarmOSCReceiver</title><rect fill="#000000" fill-opacity="0.00000" height="1012.0625" width="8" x="337.7324" y="122.2656"/><line style="stroke:#6998B5;stroke-width:0.5;stroke-dasharray:5,5;" x1="341.0811" x2="341.0811" y1="122.2656" y2="1134.3281"/></g></g><g class="participant-lifeline" data-entity-uid="part3" data-qualified-name="Engine" data-source-line="289" id="part3-lifeline"><g><title>AdaptiveBoidSoundEngine</title><rect fill="#000000" fill-opacity="0.00000" height="1012.0625" width="8" x="540.7637" y="122.2656"/><line style="stroke:#6998B5;stroke-width:0.5;stroke-dasharray:5,5;" x1="544.3838" x2="544.3838" y1="122.2656" y2="1134.3281"/></g></g><g class="participant-lifeline" data-entity-uid="part4" data-qualified-name="Agg" data-source-line="290" id="part4-lifeline"><g><title>BoidAggregator</title><rect fill="#000000" fill-opacity="0.00000" height="1012.0625" width="8" x="741.9355" y="122.2656"/><line style="stroke:#6998B5;stroke-width:0.5;stroke-dasharray:5,5;" x1="745.8174" x2="745.8174" y1="122.2656" y2="1134.3281"/></g></g><g class="participant-lifeline" data-entity-uid="part5" data-qualified-name="Modal" data-source-line="291" id="part5-lifeline"><g><title>ModalBank2D</title><rect fill="#000000" fill-opacity="0.00000" height="1012.0625" width="8" x="946.0137" y="122.2656"/><line style="stroke:#6998B5;stroke-width:0.5;stroke-dasharray:5,5;" x1="949.5059" x2="949.5059" y1="122.2656" y2="1134.3281"/></g></g><g class="participant-lifeline" data-entity-uid="part6" data-qualified-name="Enc" data-source-line="292" id="part6-lifeline"><g><title>AmbiEncode2D</title><rect fill="#000000" fill-opacity="0.00000" height="1012.0625" width="8" x="1097.4473" y="122.2656"/><line style="stroke:#6998B5;stroke-width:0.5;stroke-dasharray:5,5;" x1="1100.5215" x2="1100.5215" y1="122.2656" y2="1134.3281"/></g></g><g class="participant-lifeline" data-entity-uid="part7" data-qualified-name="Dec" data-source-line="293" id="part7-lifeline"><g><title>AmbiDecode2D</title><rect fill="#000000" fill-opacity="0.00000" height="1012.0625" width="8" x="1254.0166" y="122.2656"/><line style="stroke:#6998B5;stroke-width:0.5;stroke-dasharray:5,5;" x1="1257.373" x2="1257.373" y1="122.2656" y2="1134.3281"/></g></g><g class="participant-lifeline" data-entity-uid="part8" data-qualified-name="Out" data-source-line="294" id="part8-lifeline"><g><title>AudioBuffer</title><rect fill="#000000" fill-opacity="0.00000" height="1012.0625" width="8" x="1400.0156" y="122.2656"/><line style="stroke:#6998B5;stroke-width:0.5;stroke-dasharray:5,5;" x1="1403.6602" x2="1403.6602" y1="122.2656" y2="1134.3281"/></g></g><g class="participant participant-head" data-entity-uid="part1" data-qualified-name="OSC" data-source-line="287" id="part1-head"><text fill="#3E4681" font-family="Helvetica" font-size="12" lengthAdjust="spacing" textLength="82.8867" x="5" y="119.4355">SwarmSource</text><ellipse cx="49.4434" cy="61.2969" fill="#FFFFFF" rx="16" ry="16" style="stroke:#3E4681;stroke-width:3;"/><path d="M49.4434,81.2969 C53.4434,81.2969 56.4434,81.2969 60.4434,77.2969 C68.4434,77.2969 76.4434,85.2969 76.4434,93.2969 L76.4434,97.2969 C76.4434,101.2969 72.4434,105.2969 68.4434,105.2969 L30.4434,105.2969 C26.4434,105.2969 22.4434,101.2969 22.4434,97.2969 L22.4434,93.2969 C22.4434,85.2969 30.4434,77.2969 38.4434,77.2969 C42.4434,81.2969 45.4434,81.2969 49.4434,81.2969" fill="#FFFFFF" style="stroke:#3E4681;stroke-width:3;"/></g><g class="participant participant-tail" data-entity-uid="part1" data-qualified-name="OSC" data-source-line="287" id="part1-tail"><text fill="#3E4681" font-family="Helvetica" font-size="12" lengthAdjust="spacing" textLength="82.8867" x="5" y="1144.4668">SwarmSource</text><ellipse cx="49.4434" cy="1166.2969" fill="#FFFFFF" rx="16" ry="16" style="stroke:#3E4681;stroke-width:3;"/><path d="M49.4434,1186.2969 C53.4434,1186.2969 56.4434,1186.2969 60.4434,1182.2969 C68.4434,1182.2969 76.4434,1190.2969 76.4434,1198.2969 L76.4434,1202.2969 C76.4434,1206.2969 72.4434,1210.2969 68.4434,1210.2969 L30.4434,1210.2969 C26.4434,1210.2969 22.4434,1206.2969 22.4434,1202.2969 L22.4434,1198.2969 C22.4434,1190.2969 30.4434,1182.2969 38.4434,1182.2969 C42.4434,1186.2969 45.4434,1186.2969 49.4434,1186.2969" fill="#FFFFFF" style="stroke:#3E4681;stroke-width:3;"/></g><g class="participant participant-head" data-entity-uid="part2" data-qualified-name="Receiver" data-source-line="288" id="part2-head"><rect fill="#FFFFFF" height="27.9688" rx="5" ry="5" style="stroke:#3E4681;stroke-width:1.5;" width="133.3027" x="275.0811" y="93.2969"/><text fill="#3E4681" font-family="Helvetica" font-size="12" lengthAdjust="spacing" textLength="119.3027" x="282.0811" y="111.4355">SwarmOSCReceiver</text></g><g class="participant participant-tail" data-entity-uid="part2" data-qualified-name="Receiver" data-source-line="288" id="part2-tail"><rect fill="#FFFFFF" height="27.9688" rx="5" ry="5" style="stroke:#3E4681;stroke-width:1.5;" width="133.3027" x="275.0811" y="1133.3281"/><text fill="#3E4681" font-family="Helvetica" font-size="12" lengthAdjust="spacing" textLength="119.3027" x="282.0811" y="1151.4668">SwarmOSCReceiver</text></g><g class="participant participant-head" data-entity-uid="part3" data-qualified-name="Engine" data-source-line="289" id="part3-head"><rect fill="#FFFFFF" height="27.9688" rx="5" ry="5" style="stroke:#3E4681;stroke-width:1.5;" width="172.7598" x="458.3838" y="93.2969"/><text fill="#3E4681" font-family="Helvetica" font-size="12" lengthAdjust="spacing" textLength="158.7598" x="465.3838" y="111.4355">AdaptiveBoidSoundEngine</text></g><g class="participant participant-tail" data-entity-uid="part3" data-qualified-name="Engine" data-source-line="289" id="part3-tail"><rect fill="#FFFFFF" height="27.9688" rx="5" ry="5" style="stroke:#3E4681;stroke-width:1.5;" width="172.7598" x="458.3838" y="1133.3281"/><text fill="#3E4681" font-family="Helvetica" font-size="12" lengthAdjust="spacing" textLength="158.7598" x="465.3838" y="1151.4668">AdaptiveBoidSoundEngine</text></g><g class="participant participant-head" data-entity-uid="part4" data-qualified-name="Agg" data-source-line="290" id="part4-head"><rect fill="#FFFFFF" height="27.9688" rx="5" ry="5" style="stroke:#3E4681;stroke-width:1.5;" width="108.2363" x="691.8174" y="93.2969"/><text fill="#3E4681" font-family="Helvetica" font-size="12" lengthAdjust="spacing" textLength="94.2363" x="698.8174" y="111.4355">BoidAggregator</text></g><g class="participant participant-tail" data-entity-uid="part4" data-qualified-name="Agg" data-source-line="290" id="part4-tail"><rect fill="#FFFFFF" height="27.9688" rx="5" ry="5" style="stroke:#3E4681;stroke-width:1.5;" width="108.2363" x="691.8174" y="1133.3281"/><text fill="#3E4681" font-family="Helvetica" font-size="12" lengthAdjust="spacing" textLength="94.2363" x="698.8174" y="1151.4668">BoidAggregator</text></g><g class="participant participant-head" data-entity-uid="part5" data-qualified-name="Modal" data-source-line="291" id="part5-head"><rect fill="#FFFFFF" height="27.9688" rx="5" ry="5" style="stroke:#3E4681;stroke-width:1.5;" width="97.0156" x="901.5059" y="93.2969"/><text fill="#3E4681" font-family="Helvetica" font-size="12" lengthAdjust="spacing" textLength="83.0156" x="908.5059" y="111.4355">ModalBank2D</text></g><g class="participant participant-tail" data-entity-uid="part5" data-qualified-name="Modal" data-source-line="291" id="part5-tail"><rect fill="#FFFFFF" height="27.9688" rx="5" ry="5" style="stroke:#3E4681;stroke-width:1.5;" width="97.0156" x="901.5059" y="1133.3281"/><text fill="#3E4681" font-family="Helvetica" font-size="12" lengthAdjust="spacing" textLength="83.0156" x="908.5059" y="1151.4668">ModalBank2D</text></g><g class="participant participant-head" data-entity-uid="part6" data-qualified-name="Enc" data-source-line="292" id="part6-head"><rect fill="#FFFFFF" height="27.9688" rx="5" ry="5" style="stroke:#3E4681;stroke-width:1.5;" width="105.8516" x="1048.5215" y="93.2969"/><text fill="#3E4681" font-family="Helvetica" font-size="12" lengthAdjust="spacing" textLength="91.8516" x="1055.5215" y="111.4355">AmbiEncode2D</text></g><g class="participant participant-tail" data-entity-uid="part6" data-qualified-name="Enc" data-source-line="292" id="part6-tail"><rect fill="#FFFFFF" height="27.9688" rx="5" ry="5" style="stroke:#3E4681;stroke-width:1.5;" width="105.8516" x="1048.5215" y="1133.3281"/><text fill="#3E4681" font-family="Helvetica" font-size="12" lengthAdjust="spacing" textLength="91.8516" x="1055.5215" y="1151.4668">AmbiEncode2D</text></g><g class="participant participant-head" data-entity-uid="part7" data-qualified-name="Dec" data-source-line="293" id="part7-head"><rect fill="#FFFFFF" height="27.9688" rx="5" ry="5" style="stroke:#3E4681;stroke-width:1.5;" width="107.2871" x="1204.373" y="93.2969"/><text fill="#3E4681" font-family="Helvetica" font-size="12" lengthAdjust="spacing" textLength="93.2871" x="1211.373" y="111.4355">AmbiDecode2D</text></g><g class="participant participant-tail" data-entity-uid="part7" data-qualified-name="Dec" data-source-line="293" id="part7-tail"><rect fill="#FFFFFF" height="27.9688" rx="5" ry="5" style="stroke:#3E4681;stroke-width:1.5;" width="107.2871" x="1204.373" y="1133.3281"/><text fill="#3E4681" font-family="Helvetica" font-size="12" lengthAdjust="spacing" textLength="93.2871" x="1211.373" y="1151.4668">AmbiDecode2D</text></g><g class="participant participant-head" data-entity-uid="part8" data-qualified-name="Out" data-source-line="294" id="part8-head"><rect fill="#FFFFFF" height="27.9688" rx="5" ry="5" style="stroke:#3E4681;stroke-width:1.5;" width="84.7109" x="1361.6602" y="93.2969"/><text fill="#3E4681" font-family="Helvetica" font-size="12" lengthAdjust="spacing" textLength="70.7109" x="1368.6602" y="111.4355">AudioBuffer</text></g><g class="participant participant-tail" data-entity-uid="part8" data-qualified-name="Out" data-source-line="294" id="part8-tail"><rect fill="#FFFFFF" height="27.9688" rx="5" ry="5" style="stroke:#3E4681;stroke-width:1.5;" width="84.7109" x="1361.6602" y="1133.3281"/><text fill="#3E4681" font-family="Helvetica" font-size="12" lengthAdjust="spacing" textLength="70.7109" x="1368.6602" y="1151.4668">AudioBuffer</text></g><rect fill="#AAAAAA" height="3" rx="5" ry="5" style="stroke:#AAAAAA;stroke-width:1;" width="1496.3711" x="0" y="152.25"/><line style="stroke:#666666;stroke-width:0.5;" x1="0" x2="1496.3711" y1="152.25" y2="152.25"/><line style="stroke:#666666;stroke-width:0.5;" x1="0" x2="1496.3711" y1="155.25" y2="155.25"/><rect fill="#AAAAAA" height="21.9688" rx="5" ry="5" style="stroke:#666666;stroke-width:1;" width="214.584" x="640.8936" y="142.2656"/><text fill="#444444" font-family="Helvetica" font-size="12" font-weight="700" lengthAdjust="spacing" textLength="196.4063" x="646.8936" y="157.4043">Frame update (game thread)</text><g class="message" data-entity-1="part1" data-entity-2="part2" data-source-line="297" id="msg1"><polygon fill="#999999" points="329.7324,190.2031,339.7324,194.2031,329.7324,198.2031,333.7324,194.2031" style="stroke:#999999;stroke-width:1;"/><line style="stroke:#999999;stroke-width:1;" x1="49.4434" x2="335.7324" y1="194.2031" y2="194.2031"/><text fill="#444444" font-family="Helvetica" font-size="12" lengthAdjust="spacing" textLength="268.2891" x="61.4434" y="189.373">OSC messages (/swarm/.../position, velocity)</text></g><g class="message" data-entity-1="part2" data-entity-2="part2" data-source-line="298" id="msg2"><line style="stroke:#999999;stroke-width:1;" x1="341.7324" x2="383.7324" y1="222.1719" y2="222.1719"/><line style="stroke:#999999;stroke-width:1;" x1="383.7324" x2="383.7324" y1="222.1719" y2="235.1719"/><line style="stroke:#999999;stroke-width:1;" x1="342.7324" x2="383.7324" y1="235.1719" y2="235.1719"/><polygon fill="#999999" points="352.7324,231.1719,342.7324,235.1719,352.7324,239.1719,348.7324,235.1719" style="stroke:#999999;stroke-width:1;"/><text fill="#444444" font-family="Helvetica" font-size="12" lengthAdjust="spacing" textLength="168.709" x="348.7324" y="217.3418">parse + update Boid structs</text></g><g class="message" data-entity-1="part3" data-entity-2="part2" data-source-line="300" id="msg3"><polygon fill="#999999" points="352.7324,259.1406,342.7324,263.1406,352.7324,267.1406,348.7324,263.1406" style="stroke:#999999;stroke-width:1;"/><line style="stroke:#999999;stroke-width:1;" x1="346.7324" x2="543.7637" y1="263.1406" y2="263.1406"/><text fill="#444444" font-family="Helvetica" font-size="12" lengthAdjust="spacing" textLength="105.7031" x="390.3965" y="258.3105">swarm.getBoids()</text></g><g class="message" data-entity-1="part2" data-entity-2="part3" data-source-line="301" id="msg4"><polygon fill="#999999" points="532.7637,287.1094,542.7637,291.1094,532.7637,295.1094,536.7637,291.1094" style="stroke:#999999;stroke-width:1;"/><line style="stroke:#999999;stroke-width:1;stroke-dasharray:2,2;" x1="341.7324" x2="538.7637" y1="291.1094" y2="291.1094"/><text fill="#444444" font-family="Helvetica" font-size="12" lengthAdjust="spacing" textLength="111.3574" x="387.5693" y="286.2793">std::vector&lt;Boid&gt;</text></g><g class="message" data-entity-1="part3" data-entity-2="part4" data-source-line="303" id="msg5"><polygon fill="#999999" points="733.9355,315.0781,743.9355,319.0781,733.9355,323.0781,737.9355,319.0781" style="stroke:#999999;stroke-width:1;"/><line style="stroke:#999999;stroke-width:1;" x1="544.7637" x2="739.9355" y1="319.0781" y2="319.0781"/><text fill="#444444" font-family="Helvetica" font-size="12" lengthAdjust="spacing" textLength="83.8066" x="603.4463" y="314.248">update(boids)</text></g><g class="message" data-entity-1="part4" data-entity-2="part4" data-source-line="304" id="msg6"><line style="stroke:#999999;stroke-width:1;" x1="745.9355" x2="787.9355" y1="347.0469" y2="347.0469"/><line style="stroke:#999999;stroke-width:1;" x1="787.9355" x2="787.9355" y1="347.0469" y2="360.0469"/><line style="stroke:#999999;stroke-width:1;" x1="746.9355" x2="787.9355" y1="360.0469" y2="360.0469"/><polygon fill="#999999" points="756.9355,356.0469,746.9355,360.0469,756.9355,364.0469,752.9355,360.0469" style="stroke:#999999;stroke-width:1;"/><text fill="#444444" font-family="Helvetica" font-size="12" lengthAdjust="spacing" textLength="157.0195" x="752.9355" y="342.2168">computeSpatialPositions()</text></g><g class="message" data-entity-1="part4" data-entity-2="part4" data-source-line="305" id="msg7"><line style="stroke:#999999;stroke-width:1;" x1="745.9355" x2="787.9355" y1="388.0156" y2="388.0156"/><line style="stroke:#999999;stroke-width:1;" x1="787.9355" x2="787.9355" y1="388.0156" y2="401.0156"/><line style="stroke:#999999;stroke-width:1;" x1="746.9355" x2="787.9355" y1="401.0156" y2="401.0156"/><polygon fill="#999999" points="756.9355,397.0156,746.9355,401.0156,756.9355,405.0156,752.9355,401.0156" style="stroke:#999999;stroke-width:1;"/><text fill="#444444" font-family="Helvetica" font-size="12" lengthAdjust="spacing" textLength="190.0781" x="752.9355" y="383.1855">computeDistancesAndDensity()</text></g><g class="message" data-entity-1="part4" data-entity-2="part4" data-source-line="306" id="msg8"><line style="stroke:#999999;stroke-width:1;" x1="745.9355" x2="787.9355" y1="428.9844" y2="428.9844"/><line style="stroke:#999999;stroke-width:1;" x1="787.9355" x2="787.9355" y1="428.9844" y2="441.9844"/><line style="stroke:#999999;stroke-width:1;" x1="746.9355" x2="787.9355" y1="441.9844" y2="441.9844"/><polygon fill="#999999" points="756.9355,437.9844,746.9355,441.9844,756.9355,445.9844,752.9355,441.9844" style="stroke:#999999;stroke-width:1;"/><text fill="#444444" font-family="Helvetica" font-size="12" lengthAdjust="spacing" textLength="133.2773" x="752.9355" y="424.1543">computeGlobalMean()</text></g><g class="message" data-entity-1="part3" data-entity-2="part3" data-source-line="308" id="msg9"><line style="stroke:#999999;stroke-width:1;" x1="544.7637" x2="586.7637" y1="469.9531" y2="469.9531"/><line style="stroke:#999999;stroke-width:1;" x1="586.7637" x2="586.7637" y1="469.9531" y2="482.9531"/><line style="stroke:#999999;stroke-width:1;" x1="545.7637" x2="586.7637" y1="482.9531" y2="482.9531"/><polygon fill="#999999" points="555.7637,478.9531,545.7637,482.9531,555.7637,486.9531,551.7637,482.9531" style="stroke:#999999;stroke-width:1;"/><text fill="#444444" font-family="Helvetica" font-size="12" lengthAdjust="spacing" textLength="186.7617" x="551.7637" y="465.123">computeModalParamsControl()</text></g><g class="message" data-entity-1="part3" data-entity-2="part5" data-source-line="309" id="msg10"><polygon fill="#999999" points="938.0137,506.9219,948.0137,510.9219,938.0137,514.9219,942.0137,510.9219" style="stroke:#999999;stroke-width:1;"/><line style="stroke:#999999;stroke-width:1;" x1="544.7637" x2="944.0137" y1="510.9219" y2="510.9219"/><text fill="#444444" font-family="Helvetica" font-size="12" lengthAdjust="spacing" textLength="238.2598" x="628.2588" y="506.0918">setParams(source, mode, freq/bw/amp)</text></g><rect fill="#AAAAAA" height="3" rx="5" ry="5" style="stroke:#AAAAAA;stroke-width:1;" width="1496.3711" x="0" y="538.9063"/><line style="stroke:#666666;stroke-width:0.5;" x1="0" x2="1496.3711" y1="538.9063" y2="538.9063"/><line style="stroke:#666666;stroke-width:0.5;" x1="0" x2="1496.3711" y1="541.9063" y2="541.9063"/><rect fill="#AAAAAA" height="21.9688" rx="5" ry="5" style="stroke:#666666;stroke-width:1;" width="189.7578" x="653.3066" y="528.9219"/><text fill="#444444" font-family="Helvetica" font-size="12" font-weight="700" lengthAdjust="spacing" textLength="171.5801" x="659.3066" y="544.0605">Audio thread (per buffer)</text><path d="M413.3838,567.8906 L482.5752,567.8906 L482.5752,573.8594 L472.5752,583.8594 L408.3838,583.8594 L408.3838,572.8906 A5,5 0 0 1 413.3838,567.8906" fill="#FFF166" style="stroke:#C8B609;stroke-width:1.5;"/><rect fill="none" height="549.4375" rx="5" ry="5" style="stroke:#6998B5;stroke-width:1;" width="1077.9873" x="408.3838" y="567.8906"/><text fill="#444444" font-family="Helvetica" font-size="12" font-weight="700" lengthAdjust="spacing" textLength="29.1914" x="423.3838" y="580.0293">loop</text><text fill="#444444" font-family="Helvetica" font-size="12" font-weight="700" lengthAdjust="spacing" textLength="176.8359" x="497.5752" y="581.0293">[audioOut(buffer frames)]</text><g class="message" data-entity-1="part3" data-entity-2="part3" data-source-line="314" id="msg11"><line style="stroke:#999999;stroke-width:1;" x1="544.7637" x2="586.7637" y1="603.8281" y2="603.8281"/><line style="stroke:#999999;stroke-width:1;" x1="586.7637" x2="586.7637" y1="603.8281" y2="616.8281"/><line style="stroke:#999999;stroke-width:1;" x1="545.7637" x2="586.7637" y1="616.8281" y2="616.8281"/><polygon fill="#999999" points="555.7637,612.8281,545.7637,616.8281,555.7637,620.8281,551.7637,616.8281" style="stroke:#999999;stroke-width:1;"/><text fill="#444444" font-family="Helvetica" font-size="12" lengthAdjust="spacing" textLength="187.1719" x="551.7637" y="598.998">load active ModalParamsBuffer</text></g><g class="message" data-entity-1="part3" data-entity-2="part3" data-source-line="315" id="msg12"><line style="stroke:#999999;stroke-width:1;" x1="544.7637" x2="586.7637" y1="644.7969" y2="644.7969"/><line style="stroke:#999999;stroke-width:1;" x1="586.7637" x2="586.7637" y1="644.7969" y2="657.7969"/><line style="stroke:#999999;stroke-width:1;" x1="545.7637" x2="586.7637" y1="657.7969" y2="657.7969"/><polygon fill="#999999" points="555.7637,653.7969,545.7637,657.7969,555.7637,661.7969,551.7637,657.7969" style="stroke:#999999;stroke-width:1;"/><text fill="#444444" font-family="Helvetica" font-size="12" lengthAdjust="spacing" textLength="131.7188" x="551.7637" y="639.9668">compute trigger rates</text></g><path d="M423.3838,672.7969 L492.5752,672.7969 L492.5752,678.7656 L482.5752,688.7656 L418.3838,688.7656 L418.3838,677.7969 A5,5 0 0 1 423.3838,672.7969" fill="#FFF166" style="stroke:#C8B609;stroke-width:1.5;"/><rect fill="none" height="437.5313" rx="5" ry="5" style="stroke:#6998B5;stroke-width:1;" width="1057.9873" x="418.3838" y="672.7969"/><text fill="#444444" font-family="Helvetica" font-size="12" font-weight="700" lengthAdjust="spacing" textLength="29.1914" x="433.3838" y="684.9355">loop</text><text fill="#444444" font-family="Helvetica" font-size="12" font-weight="700" lengthAdjust="spacing" textLength="77.6719" x="507.5752" y="685.9355">[per frame]</text><g class="message" data-entity-1="part3" data-entity-2="part3" data-source-line="318" id="msg13"><line style="stroke:#999999;stroke-width:1;" x1="544.7637" x2="586.7637" y1="708.7344" y2="708.7344"/><line style="stroke:#999999;stroke-width:1;" x1="586.7637" x2="586.7637" y1="708.7344" y2="721.7344"/><line style="stroke:#999999;stroke-width:1;" x1="545.7637" x2="586.7637" y1="721.7344" y2="721.7344"/><polygon fill="#999999" points="555.7637,717.7344,545.7637,721.7344,555.7637,725.7344,551.7637,721.7344" style="stroke:#999999;stroke-width:1;"/><text fill="#444444" font-family="Helvetica" font-size="12" lengthAdjust="spacing" textLength="162.5918" x="551.7637" y="703.9043">update triggerAccumulator</text></g><path d="M433.3838,736.7344 L491.3311,736.7344 L491.3311,742.7031 L481.3311,752.7031 L428.3838,752.7031 L428.3838,741.7344 A5,5 0 0 1 433.3838,736.7344" fill="#FFF166" style="stroke:#C8B609;stroke-width:1.5;"/><rect fill="none" height="43.9375" rx="5" ry="5" style="stroke:#6998B5;stroke-width:1;" width="600.1377" x="428.3838" y="736.7344"/><text fill="#444444" font-family="Helvetica" font-size="12" font-weight="700" lengthAdjust="spacing" textLength="17.9473" x="443.3838" y="748.873">alt</text><text fill="#444444" font-family="Helvetica" font-size="12" font-weight="700" lengthAdjust="spacing" textLength="94.1309" x="506.3311" y="749.873">[trigger fired]</text><g class="message" data-entity-1="part3" data-entity-2="part5" data-source-line="321" id="msg14"><polygon fill="#999999" points="938.0137,768.6719,948.0137,772.6719,938.0137,776.6719,942.0137,772.6719" style="stroke:#999999;stroke-width:1;"/><line style="stroke:#999999;stroke-width:1;" x1="544.7637" x2="944.0137" y1="772.6719" y2="772.6719"/><text fill="#444444" font-family="Helvetica" font-size="12" lengthAdjust="spacing" textLength="120.4043" x="687.1865" y="767.8418">exciteSource(boid i)</text></g><g class="message" data-entity-1="part5" data-entity-2="part5" data-source-line="324" id="msg15"><line style="stroke:#999999;stroke-width:1;" x1="950.0137" x2="992.0137" y1="807.6406" y2="807.6406"/><line style="stroke:#999999;stroke-width:1;" x1="992.0137" x2="992.0137" y1="807.6406" y2="820.6406"/><line style="stroke:#999999;stroke-width:1;" x1="951.0137" x2="992.0137" y1="820.6406" y2="820.6406"/><polygon fill="#999999" points="961.0137,816.6406,951.0137,820.6406,961.0137,824.6406,957.0137,820.6406" style="stroke:#999999;stroke-width:1;"/><text fill="#444444" font-family="Helvetica" font-size="12" lengthAdjust="spacing" textLength="64.1016" x="957.0137" y="802.8105">playMulti()</text></g><g class="message" data-entity-1="part5" data-entity-2="part3" data-source-line="325" id="msg16"><polygon fill="#999999" points="555.7637,844.6094,545.7637,848.6094,555.7637,852.6094,551.7637,848.6094" style="stroke:#999999;stroke-width:1;"/><line style="stroke:#999999;stroke-width:1;stroke-dasharray:2,2;" x1="549.7637" x2="949.0137" y1="848.6094" y2="848.6094"/><text fill="#444444" font-family="Helvetica" font-size="12" lengthAdjust="spacing" textLength="83.209" x="705.7842" y="843.7793">boidOutputs[]</text></g><path d="M433.3838,863.6094 L502.5752,863.6094 L502.5752,869.5781 L492.5752,879.5781 L428.3838,879.5781 L428.3838,868.6094 A5,5 0 0 1 433.3838,863.6094" fill="#FFF166" style="stroke:#C8B609;stroke-width:1.5;"/><rect fill="none" height="99.875" rx="5" ry="5" style="stroke:#6998B5;stroke-width:1;" width="755.9893" x="428.3838" y="863.6094"/><text fill="#444444" font-family="Helvetica" font-size="12" font-weight="700" lengthAdjust="spacing" textLength="29.1914" x="443.3838" y="875.748">loop</text><text fill="#444444" font-family="Helvetica" font-size="12" font-weight="700" lengthAdjust="spacing" textLength="75.6211" x="517.5752" y="876.748">[per boid j]</text><g class="message" data-entity-1="part3" data-entity-2="part4" data-source-line="328" id="msg17"><polygon fill="#999999" points="733.9355,895.5469,743.9355,899.5469,733.9355,903.5469,737.9355,899.5469" style="stroke:#999999;stroke-width:1;"/><line style="stroke:#999999;stroke-width:1;" x1="544.7637" x2="739.9355" y1="899.5469" y2="899.5469"/><text fill="#444444" font-family="Helvetica" font-size="12" lengthAdjust="spacing" textLength="121.4941" x="584.6025" y="894.7168">getNormalizedPos(j)</text></g><g class="message" data-entity-1="part3" data-entity-2="part6" data-source-line="329" id="msg18"><polygon fill="#999999" points="1089.4473,923.5156,1099.4473,927.5156,1089.4473,931.5156,1093.4473,927.5156" style="stroke:#999999;stroke-width:1;"/><line style="stroke:#999999;stroke-width:1;" x1="544.7637" x2="1095.4473" y1="927.5156" y2="927.5156"/><text fill="#444444" font-family="Helvetica" font-size="12" lengthAdjust="spacing" textLength="193.0957" x="726.5576" y="922.6855">play(sample, azimuth, distance)</text></g><g class="message" data-entity-1="part6" data-entity-2="part3" data-source-line="330" id="msg19"><polygon fill="#999999" points="555.7637,951.4844,545.7637,955.4844,555.7637,959.4844,551.7637,955.4844" style="stroke:#999999;stroke-width:1;"/><line style="stroke:#999999;stroke-width:1;stroke-dasharray:2,2;" x1="549.7637" x2="1100.4473" y1="955.4844" y2="955.4844"/><text fill="#444444" font-family="Helvetica" font-size="12" lengthAdjust="spacing" textLength="85.2539" x="780.4785" y="950.6543">ambiFrame[7]</text></g><g class="message" data-entity-1="part3" data-entity-2="part7" data-source-line="333" id="msg20"><polygon fill="#999999" points="1246.0166,986.4531,1256.0166,990.4531,1246.0166,994.4531,1250.0166,990.4531" style="stroke:#999999;stroke-width:1;"/><line style="stroke:#999999;stroke-width:1;" x1="544.7637" x2="1252.0166" y1="990.4531" y2="990.4531"/><text fill="#444444" font-family="Helvetica" font-size="12" lengthAdjust="spacing" textLength="179.7188" x="811.5308" y="985.623">play(ambiFrame, speakerAzL)</text></g><g class="message" data-entity-1="part7" data-entity-2="part3" data-source-line="334" id="msg21"><polygon fill="#999999" points="555.7637,1014.4219,545.7637,1018.4219,555.7637,1022.4219,551.7637,1018.4219" style="stroke:#999999;stroke-width:1;"/><line style="stroke:#999999;stroke-width:1;stroke-dasharray:2,2;" x1="549.7637" x2="1257.0166" y1="1018.4219" y2="1018.4219"/><text fill="#444444" font-family="Helvetica" font-size="12" lengthAdjust="spacing" textLength="67.0898" x="867.8452" y="1013.5918">left sample</text></g><g class="message" data-entity-1="part3" data-entity-2="part7" data-source-line="336" id="msg22"><polygon fill="#999999" points="1246.0166,1042.3906,1256.0166,1046.3906,1246.0166,1050.3906,1250.0166,1046.3906" style="stroke:#999999;stroke-width:1;"/><line style="stroke:#999999;stroke-width:1;" x1="544.7637" x2="1252.0166" y1="1046.3906" y2="1046.3906"/><text fill="#444444" font-family="Helvetica" font-size="12" lengthAdjust="spacing" textLength="181.3711" x="810.7046" y="1041.5605">play(ambiFrame, speakerAzR)</text></g><g class="message" data-entity-1="part7" data-entity-2="part3" data-source-line="337" id="msg23"><polygon fill="#999999" points="555.7637,1070.3594,545.7637,1074.3594,555.7637,1078.3594,551.7637,1074.3594" style="stroke:#999999;stroke-width:1;"/><line style="stroke:#999999;stroke-width:1;stroke-dasharray:2,2;" x1="549.7637" x2="1257.0166" y1="1074.3594" y2="1074.3594"/><text fill="#444444" font-family="Helvetica" font-size="12" lengthAdjust="spacing" textLength="75.6387" x="863.5708" y="1069.5293">right sample</text></g><g class="message" data-entity-1="part3" data-entity-2="part8" data-source-line="339" id="msg24"><polygon fill="#999999" points="1392.0156,1098.3281,1402.0156,1102.3281,1392.0156,1106.3281,1396.0156,1102.3281" style="stroke:#999999;stroke-width:1;"/><line style="stroke:#999999;stroke-width:1;" x1="544.7637" x2="1398.0156" y1="1102.3281" y2="1102.3281"/><text fill="#444444" font-family="Helvetica" font-size="12" lengthAdjust="spacing" textLength="158.0859" x="895.3467" y="1097.498">buffer[L,R] = tanh(output)</text></g><?plantuml-src rLbRSzks4dusVmMgza6UuzfoKll4cJepb4ZRcigIXt9EafF9U20Iab7pLXBo9Pt-zouM905If9oaUIdr8kr-sFsmkrW0r0y_3Sz7iydC8wUa9p8QvodDM2nwblN3JyE9FVfDAduynAS7idSNusiNPSlbKWhEFTUTec0mE3iR3AJCSnsKE2y70oMnFM_s3cKd-4ZPSEOvBZh-yHWVBRoPZCylhb5buuDyhjttIlOBFhr2T7CscwByWeNtJ72VLfhvzOS9iesJBAAXbb_QaydDVFn_L1uEjA8KlQX44zixTxL2kttVqBogD3RGnvZu44gM8VbB08zHYBWhst76qtFjVZJpfZ1nptR6R-Ub6EIJyTIzkRvGGmVxHxr2Xf2U0L2fEjI8c_ULz2MQSiR_6ylWEhRtMoFifQerxf3Y3uPcUIm_1ykNybEKm0UfqQd54PMRb_WK9VNMLQQqUkGwGnUdOcYrEnOiZvOdEFg3EvdCtjrKTN1qTdGy6FQqHjjyDJmUd6XDMR67Qhe5t9ZJYVoWawkttjN4DTYxlno_EjJiTVHEJbuDZ-gyLUXEHYDNpZU_up6i9ngH1VNlLbcoZeDH4YOPAPUT0LddRCW4dOkda94b3NDcAFqaIfCOgacfrr7umj16IPpujraIRGxCRscGFF1ujQ7Pe8HBsm0KkYnceAoLfpapEykI1_AdHU0f3E5YHy7rBVVlOfRd12iIPJZW4cHqnUoGhsAYLedrbsasO4kw3aLXU9Xa0SlAq66BGFbP4ej2AekYaaqfX48tXqe-vvzBkLosYYDx5CWZ0Xh4MC1rGY5RiJW0FZl3Pk3q-W2boLGgh9qkaaqoDNV3vB6O-nKD0fc_icKO0MaBRprKzUMc01kbs5XrTIBJHB22YJ4HOoL-3HzZcRPpKO0wWokQGLFdAOr58oGl1jtELKjiyZOMTpi1jGWsY9jDeSukPt-iMUpB6EdohYq454_uaarupBe3LKUOkQdOLf3k52AkuF_OKJgFsxBr-7m10URP6aAam-yvsAfPD3UXJL0RfnBGz5dRi_Iypm6JRgqw0z7cJwahRrkgle6irt2JKF2qQQb9ANZgiDQsCZtc2nglGlQDZM9B6vFwEVHabeYdb1cyTJtMgAHW2zfvsQsVhOxsHcLKM1VfQov2fhjrBsHBEAjsRGLVCuLb9lUCV_C4aX1y_fjdu8SKFFtv3-gsPiwXWYvephwVnH5C8Kl2xsVGZGKNJz_Ftb1YQFOTBTg-ICgYKcTF-i1oE6bktIEtRCllzRwyPVFjsB9hrE30x1lfVMudRn2fsdDRrMwUuZfhkRhgj43C4rvrusp3OM1xND2G-xtwB75d-983MDl-qZwXZLDO8pw7ZO1kixjby_lAxGm08UneF8d_SGymZsU2LkTNMuYCBzR2J9--gzIqtPdxbixw_8MbxM9YLCO2UdklA1mu3Uj9krEKkXKRptNgOQKGqlkooNH5j7CZs7xI7DAi5iPMnmwdS3yDkfPfhI2UBTL6hFGRcCQX_8578OqPNjSsKw4dq7Lpa675ZQxXq7ZdKo8w6uyURoQnSMw2guqi-UxiA3Ox7HdQQTrLTxxeZlThBdcziQo8nq54KqZKIfAIL5hEafSqM_6O52-oB7aRYTbcAMrMkCGrLfidgVcjhnO8YPDWwv5sWmWX5qd6FuDZ6hRVvDNbgQ9XBCZsINpfCjyw3ydqaKVhw1qFn2qv70mstmNiwFemtbZ2uBymGmTbYYmXYmagX0TaBft2aeSWCF8pyTPmY82ZwxouY5eMnJrx_a2p2B0Pt4rfJcRpaPKQDsbKWn1k4OpV0t_0bDzhG3kWAQna9dsZwy8puDMt6bgYxDKgOoigIG08VjKGbqb0mo6DxruuKeq_wmwZ1NTZ7wf08U3xXjvXMW_Vw_frm9FXUhbKavgjXMMTdf8pFE2lqq1k2FsL_25kCqQ3NN9wQa4aoCzlgWYGrp9W95AlgNBIFyXbl0xsz_SFqYJ7DRj7xbcO-D3YTgrgNDq6q883odzAhvY-N6HhN-IMLMQmDWBTxA-OaDYyRre6O344O29u_VgUoKJ_Af5lJ7CGSO0ed_s5jBDhILcbacyJOQERfrHm6buLyv7Usc0EXqqK2Yktuy1XCO2VEf3dORAWuIMZCG0CGXNj0eSvlv8TC2-Er83NS5JBIJAXGFqSotYFH93qFRYgiJyE5Wy7D4ftCRMOyIARf9z2i1QOVinic2GfeH81bT1N2dNRWx0Kk-S6qJ01IxY3CMAmLLNLDQYO7O5pn6e5JZA8VwvS88cqT8oY3YD5gHGsRDzVH-jGhYMh6aL3KVbOyem5bQPkiumZUuGYPQeLO3qGlbiDON6WBQiHnj0qf4-Nwr3m_cuJP9AMHY6wCFlyuoTjhferElszWwOg8IZvAVv90vjj02NP_tst0m_ze63Mpw44GgW8-XdwhBZT8q5HgysnVfqlXHQ2_U3ZVp-rHqAxW_PIkgk6xP4yPVGEylDvebr9PCsDl1eJnV4RB7jRB4FsRxUPXcJ8j62vVfpiUP_8AO70tFOJp9AoZ1EMBxLbdlu6?></g></svg>