M48
;GenerationSoftware,Autodesk,EAGLE,9.7.0*%
;CreationDate,2026-06-15T13:55:14Z*%
FMAT,2
ICI,OFF
METRIC,TZ,000.000
T2C0.800
T1C3.000
%
G90
M71
T1
X70131Y64770
X100049Y64770
X69850Y19331
X98779Y19331
T2
X82550Y26670
X80010Y29210
X82550Y31750
X80010Y31750
X80010Y34290
X80010Y36830
X80010Y39370
X80010Y41910
X80010Y44450
X80010Y46990
X80010Y49530
X80010Y52070
X80010Y54610
X80010Y57150
X80010Y59690
X80010Y62230
X80010Y64770
X95250Y29210
X92710Y26670
X95250Y31750
X95250Y34290
X95250Y36830
X95250Y39370
X95250Y41910
X95250Y44450
X95250Y46990
X95250Y49530
X95250Y52070
X95250Y54610
X95250Y57150
X95250Y59690
X95250Y62230
X95250Y64770
X73660Y29210
X73660Y26670
X73660Y36830
X73660Y34290
X73660Y39370
M30