G04 EAGLE Gerber RS-274X export*
G75*
%MOMM*%
%FSLAX34Y34*%
%LPD*%
%INBottom Copper*%
%IPPOS*%
%AMOC8*
5,1,8,0,0,1.08239X$1,22.5*%
G01*
G04 Define Apertures*
%ADD10C,1.930400*%
%ADD11R,1.930400X1.930400*%
%ADD12C,2.000000*%
%ADD13C,1.930400*%
D10*
X825500Y266700D03*
X800100Y292100D03*
X825500Y317500D03*
D11*
X800100Y317500D03*
D10*
X800100Y342900D03*
X800100Y368300D03*
X800100Y393700D03*
X800100Y419100D03*
X800100Y444500D03*
X800100Y469900D03*
X800100Y495300D03*
X800100Y520700D03*
X800100Y546100D03*
X800100Y571500D03*
X800100Y596900D03*
X800100Y622300D03*
X800100Y647700D03*
X952500Y292100D03*
X927100Y266700D03*
X952500Y317500D03*
X952500Y342900D03*
D11*
X952500Y368300D03*
D10*
X952500Y393700D03*
X952500Y419100D03*
X952500Y444500D03*
X952500Y469900D03*
X952500Y495300D03*
X952500Y520700D03*
X952500Y546100D03*
X952500Y571500D03*
X952500Y596900D03*
X952500Y622300D03*
X952500Y647700D03*
D12*
X927100Y213200D02*
X927100Y193200D01*
X952500Y193200D02*
X952500Y213200D01*
D13*
X825500Y212852D02*
X825500Y193548D01*
X850900Y193548D02*
X850900Y212852D01*
X800100Y212852D02*
X800100Y193548D01*
M02*
