G04 EAGLE Gerber RS-274X export*
G75*
%MOMM*%
%FSLAX34Y34*%
%LPD*%
%INSilkscreen Top*%
%IPPOS*%
%AMOC8*
5,1,8,0,0,1.08239X$1,22.5*%
G01*
G04 Define Apertures*
%ADD10C,0.127000*%
G36*
X876300Y535196D02*
X863959Y535196D01*
X863959Y541003D01*
X863974Y541510D01*
X864018Y541986D01*
X864090Y542433D01*
X864192Y542850D01*
X864324Y543238D01*
X864484Y543596D01*
X864673Y543924D01*
X864892Y544222D01*
X865137Y544488D01*
X865404Y544718D01*
X865694Y544913D01*
X866008Y545073D01*
X866344Y545197D01*
X866703Y545285D01*
X867084Y545339D01*
X867489Y545356D01*
X867826Y545344D01*
X868149Y545306D01*
X868459Y545244D01*
X868755Y545156D01*
X869037Y545043D01*
X869305Y544906D01*
X869560Y544743D01*
X869801Y544555D01*
X870025Y544345D01*
X870227Y544116D01*
X870407Y543868D01*
X870473Y543757D01*
X870565Y543601D01*
X870702Y543315D01*
X870818Y543010D01*
X870911Y542686D01*
X870984Y542343D01*
X873247Y543835D01*
X876300Y545847D01*
X876300Y543920D01*
X871176Y540714D01*
X871176Y536869D01*
X876300Y536869D01*
X876300Y535196D01*
G37*
%LPC*%
G36*
X869854Y536869D02*
X869854Y540907D01*
X869844Y541228D01*
X869815Y541531D01*
X869767Y541815D01*
X869699Y542080D01*
X869613Y542326D01*
X869506Y542553D01*
X869381Y542762D01*
X869236Y542952D01*
X869074Y543121D01*
X868897Y543268D01*
X868704Y543392D01*
X868495Y543494D01*
X868271Y543573D01*
X868032Y543630D01*
X867777Y543663D01*
X867506Y543675D01*
X867245Y543663D01*
X867000Y543629D01*
X866771Y543572D01*
X866557Y543492D01*
X866360Y543389D01*
X866179Y543263D01*
X866013Y543115D01*
X865864Y542943D01*
X865732Y542750D01*
X865617Y542537D01*
X865520Y542304D01*
X865441Y542051D01*
X865379Y541778D01*
X865335Y541484D01*
X865308Y541171D01*
X865299Y540837D01*
X865299Y536869D01*
X869854Y536869D01*
G37*
%LPD*%
G36*
X871605Y437791D02*
X871005Y437804D01*
X870444Y437845D01*
X869921Y437913D01*
X869437Y438009D01*
X868991Y438131D01*
X868585Y438281D01*
X868217Y438458D01*
X867887Y438662D01*
X867597Y438894D01*
X867345Y439152D01*
X867132Y439438D01*
X866958Y439752D01*
X866822Y440092D01*
X866726Y440460D01*
X866667Y440855D01*
X866648Y441277D01*
X866654Y441540D01*
X866673Y441793D01*
X866704Y442034D01*
X866747Y442264D01*
X866802Y442483D01*
X866870Y442691D01*
X866950Y442887D01*
X867042Y443072D01*
X867148Y443247D01*
X867268Y443414D01*
X867403Y443571D01*
X867552Y443720D01*
X867895Y443992D01*
X868295Y444228D01*
X868295Y444246D01*
X867235Y444228D01*
X863302Y444228D01*
X863302Y445805D01*
X874347Y445805D01*
X875575Y445818D01*
X876001Y445834D01*
X876300Y445857D01*
X876300Y444351D01*
X876068Y444324D01*
X875652Y444294D01*
X875179Y444271D01*
X874776Y444263D01*
X874776Y444228D01*
X875199Y443992D01*
X875387Y443860D01*
X875558Y443719D01*
X875713Y443570D01*
X875852Y443411D01*
X875974Y443244D01*
X876081Y443068D01*
X876173Y442882D01*
X876254Y442685D01*
X876321Y442477D01*
X876377Y442259D01*
X876420Y442029D01*
X876451Y441789D01*
X876469Y441538D01*
X876475Y441277D01*
X876456Y440843D01*
X876400Y440438D01*
X876305Y440064D01*
X876173Y439719D01*
X876003Y439403D01*
X875795Y439118D01*
X875550Y438862D01*
X875267Y438636D01*
X874945Y438438D01*
X874584Y438266D01*
X874185Y438121D01*
X873747Y438002D01*
X873270Y437910D01*
X872754Y437844D01*
X872199Y437804D01*
X871605Y437791D01*
G37*
%LPC*%
G36*
X871553Y439446D02*
X872032Y439454D01*
X872476Y439479D01*
X872885Y439520D01*
X873259Y439577D01*
X873597Y439651D01*
X873900Y439742D01*
X874167Y439848D01*
X874399Y439972D01*
X874601Y440113D01*
X874775Y440275D01*
X874922Y440458D01*
X875043Y440661D01*
X875137Y440885D01*
X875204Y441129D01*
X875244Y441394D01*
X875258Y441680D01*
X875243Y442003D01*
X875200Y442304D01*
X875127Y442581D01*
X875026Y442836D01*
X874895Y443067D01*
X874736Y443276D01*
X874547Y443461D01*
X874356Y443604D01*
X874329Y443624D01*
X874081Y443766D01*
X873801Y443888D01*
X873489Y443992D01*
X873145Y444077D01*
X872769Y444143D01*
X872360Y444190D01*
X871920Y444219D01*
X871448Y444228D01*
X870993Y444219D01*
X870569Y444190D01*
X870177Y444143D01*
X869817Y444077D01*
X869487Y443992D01*
X869190Y443888D01*
X868924Y443766D01*
X868689Y443624D01*
X868484Y443462D01*
X868306Y443277D01*
X868155Y443070D01*
X868032Y442840D01*
X867936Y442588D01*
X867868Y442313D01*
X867827Y442016D01*
X867813Y441697D01*
X867827Y441410D01*
X867868Y441143D01*
X867937Y440897D01*
X868033Y440671D01*
X868157Y440466D01*
X868308Y440282D01*
X868487Y440119D01*
X868693Y439976D01*
X868930Y439852D01*
X869202Y439744D01*
X869508Y439653D01*
X869848Y439579D01*
X870223Y439521D01*
X870632Y439479D01*
X871075Y439454D01*
X871553Y439446D01*
G37*
%LPD*%
G36*
X871553Y471697D02*
X870959Y471714D01*
X870403Y471763D01*
X869886Y471846D01*
X869407Y471962D01*
X868966Y472112D01*
X868564Y472294D01*
X868200Y472510D01*
X867874Y472759D01*
X867587Y473041D01*
X867338Y473356D01*
X867127Y473705D01*
X866955Y474086D01*
X866821Y474501D01*
X866725Y474949D01*
X866667Y475430D01*
X866648Y475945D01*
X866667Y476470D01*
X866723Y476959D01*
X866816Y477413D01*
X866947Y477830D01*
X867115Y478212D01*
X867321Y478558D01*
X867563Y478868D01*
X867844Y479142D01*
X868163Y479382D01*
X868524Y479590D01*
X868926Y479766D01*
X869369Y479910D01*
X869853Y480022D01*
X870378Y480102D01*
X870945Y480150D01*
X871553Y480166D01*
X872155Y480149D01*
X872717Y480098D01*
X873240Y480013D01*
X873723Y479893D01*
X874166Y479739D01*
X874570Y479551D01*
X874934Y479328D01*
X875258Y479072D01*
X875543Y478783D01*
X875790Y478462D01*
X876000Y478111D01*
X876171Y477729D01*
X876304Y477317D01*
X876399Y476873D01*
X876456Y476398D01*
X876475Y475892D01*
X876455Y475389D01*
X876396Y474918D01*
X876297Y474478D01*
X876159Y474071D01*
X875981Y473694D01*
X875763Y473350D01*
X875506Y473038D01*
X875210Y472757D01*
X874876Y472508D01*
X874506Y472293D01*
X874102Y472111D01*
X873663Y471962D01*
X873188Y471846D01*
X872678Y471763D01*
X872133Y471714D01*
X871553Y471697D01*
G37*
%LPC*%
G36*
X871553Y473352D02*
X872007Y473362D01*
X872432Y473390D01*
X872827Y473438D01*
X873194Y473505D01*
X873531Y473590D01*
X873840Y473695D01*
X874119Y473818D01*
X874369Y473961D01*
X874589Y474124D01*
X874781Y474309D01*
X874943Y474516D01*
X875075Y474744D01*
X875178Y474994D01*
X875251Y475266D01*
X875296Y475559D01*
X875310Y475875D01*
X875296Y476217D01*
X875253Y476534D01*
X875182Y476825D01*
X875083Y477091D01*
X874954Y477332D01*
X874798Y477547D01*
X874613Y477738D01*
X874399Y477902D01*
X874156Y478045D01*
X873880Y478169D01*
X873572Y478273D01*
X873232Y478359D01*
X872861Y478426D01*
X872457Y478473D01*
X872021Y478502D01*
X871553Y478511D01*
X871079Y478502D01*
X870639Y478475D01*
X870232Y478429D01*
X869859Y478366D01*
X869520Y478284D01*
X869214Y478184D01*
X868941Y478065D01*
X868702Y477929D01*
X868494Y477771D01*
X868313Y477588D01*
X868160Y477380D01*
X868035Y477148D01*
X867938Y476891D01*
X867869Y476609D01*
X867827Y476303D01*
X867813Y475971D01*
X867827Y475637D01*
X867870Y475327D01*
X867940Y475041D01*
X868040Y474779D01*
X868167Y474541D01*
X868323Y474326D01*
X868507Y474136D01*
X868720Y473970D01*
X868962Y473825D01*
X869237Y473700D01*
X869543Y473594D01*
X869881Y473507D01*
X870251Y473439D01*
X870653Y473391D01*
X871087Y473362D01*
X871553Y473352D01*
G37*
%LPD*%
G36*
X871553Y519541D02*
X870959Y519557D01*
X870403Y519607D01*
X869886Y519690D01*
X869407Y519806D01*
X868966Y519956D01*
X868564Y520138D01*
X868200Y520354D01*
X867874Y520603D01*
X867587Y520885D01*
X867338Y521200D01*
X867127Y521549D01*
X866955Y521930D01*
X866821Y522345D01*
X866725Y522793D01*
X866667Y523274D01*
X866648Y523789D01*
X866667Y524314D01*
X866723Y524803D01*
X866816Y525256D01*
X866947Y525674D01*
X867115Y526056D01*
X867321Y526401D01*
X867563Y526711D01*
X867844Y526985D01*
X868163Y527226D01*
X868524Y527434D01*
X868926Y527610D01*
X869369Y527754D01*
X869853Y527866D01*
X870378Y527946D01*
X870945Y527994D01*
X871553Y528010D01*
X872155Y527993D01*
X872717Y527942D01*
X873240Y527856D01*
X873723Y527737D01*
X874166Y527583D01*
X874570Y527394D01*
X874934Y527172D01*
X875258Y526915D01*
X875543Y526626D01*
X875790Y526306D01*
X876000Y525955D01*
X876171Y525573D01*
X876304Y525160D01*
X876399Y524716D01*
X876456Y524242D01*
X876475Y523736D01*
X876455Y523233D01*
X876396Y522762D01*
X876297Y522322D01*
X876159Y521914D01*
X875981Y521538D01*
X875763Y521194D01*
X875506Y520881D01*
X875210Y520601D01*
X874876Y520352D01*
X874506Y520137D01*
X874102Y519955D01*
X873663Y519806D01*
X873188Y519690D01*
X872678Y519607D01*
X872133Y519557D01*
X871553Y519541D01*
G37*
%LPC*%
G36*
X871553Y521196D02*
X872007Y521206D01*
X872432Y521234D01*
X872827Y521282D01*
X873194Y521348D01*
X873531Y521434D01*
X873840Y521539D01*
X874119Y521662D01*
X874369Y521805D01*
X874589Y521968D01*
X874781Y522153D01*
X874943Y522359D01*
X875075Y522588D01*
X875178Y522838D01*
X875251Y523110D01*
X875296Y523403D01*
X875310Y523719D01*
X875296Y524061D01*
X875253Y524377D01*
X875182Y524669D01*
X875083Y524935D01*
X874954Y525176D01*
X874798Y525391D01*
X874613Y525581D01*
X874399Y525746D01*
X874156Y525889D01*
X873880Y526012D01*
X873572Y526117D01*
X873232Y526203D01*
X872861Y526269D01*
X872457Y526317D01*
X872021Y526345D01*
X871553Y526355D01*
X871079Y526346D01*
X870639Y526318D01*
X870232Y526273D01*
X869859Y526209D01*
X869520Y526127D01*
X869214Y526027D01*
X868941Y525909D01*
X868702Y525772D01*
X868494Y525614D01*
X868313Y525432D01*
X868160Y525224D01*
X868035Y524992D01*
X867938Y524735D01*
X867869Y524453D01*
X867827Y524146D01*
X867813Y523815D01*
X867827Y523481D01*
X867870Y523171D01*
X867940Y522885D01*
X868040Y522623D01*
X868167Y522384D01*
X868323Y522170D01*
X868507Y521980D01*
X868720Y521814D01*
X868962Y521669D01*
X869237Y521543D01*
X869543Y521437D01*
X869881Y521350D01*
X870251Y521283D01*
X870653Y521235D01*
X871087Y521206D01*
X871553Y521196D01*
G37*
%LPD*%
G36*
X876300Y419135D02*
X863959Y424171D01*
X863959Y426072D01*
X876300Y431029D01*
X876300Y429321D01*
X872692Y427911D01*
X872692Y422288D01*
X876300Y420869D01*
X876300Y419135D01*
G37*
%LPC*%
G36*
X871386Y422796D02*
X871386Y427412D01*
X867314Y425827D01*
X866670Y425581D01*
X865947Y425336D01*
X865220Y425100D01*
X865466Y425021D01*
X866296Y424749D01*
X867331Y424373D01*
X871386Y422796D01*
G37*
%LPD*%
G36*
X876300Y487353D02*
X863959Y487353D01*
X863959Y489297D01*
X874540Y495971D01*
X873059Y495892D01*
X872052Y495866D01*
X863959Y495866D01*
X863959Y497372D01*
X876300Y497372D01*
X876300Y495358D01*
X865790Y488754D01*
X866639Y488798D01*
X868102Y488842D01*
X876300Y488842D01*
X876300Y487353D01*
G37*
G36*
X873655Y499612D02*
X873298Y499627D01*
X872962Y499672D01*
X872647Y499748D01*
X872354Y499854D01*
X872083Y499990D01*
X871832Y500156D01*
X871603Y500353D01*
X871395Y500580D01*
X871210Y500840D01*
X871047Y501138D01*
X870908Y501473D01*
X870791Y501844D01*
X870697Y502253D01*
X870627Y502699D01*
X870579Y503182D01*
X870554Y503702D01*
X870519Y505831D01*
X870003Y505831D01*
X869724Y505823D01*
X869466Y505800D01*
X869228Y505762D01*
X869011Y505708D01*
X868814Y505639D01*
X868638Y505555D01*
X868482Y505455D01*
X868347Y505340D01*
X868230Y505209D01*
X868129Y505060D01*
X868043Y504893D01*
X867973Y504709D01*
X867918Y504508D01*
X867879Y504289D01*
X867856Y504053D01*
X867848Y503799D01*
X867870Y503305D01*
X867899Y503085D01*
X867938Y502883D01*
X867988Y502700D01*
X868050Y502534D01*
X868123Y502387D01*
X868207Y502257D01*
X868304Y502143D01*
X868414Y502040D01*
X868537Y501950D01*
X868674Y501872D01*
X868824Y501805D01*
X868987Y501751D01*
X869164Y501709D01*
X869355Y501679D01*
X869206Y500032D01*
X868896Y500094D01*
X868606Y500180D01*
X868336Y500289D01*
X868087Y500421D01*
X867857Y500577D01*
X867647Y500756D01*
X867457Y500958D01*
X867287Y501184D01*
X867138Y501433D01*
X867008Y501706D01*
X866898Y502002D01*
X866808Y502322D01*
X866738Y502665D01*
X866688Y503031D01*
X866658Y503421D01*
X866648Y503834D01*
X866661Y504266D01*
X866699Y504672D01*
X866763Y505049D01*
X866853Y505399D01*
X866968Y505721D01*
X867109Y506016D01*
X867275Y506283D01*
X867467Y506522D01*
X867683Y506734D01*
X867922Y506917D01*
X868184Y507072D01*
X868469Y507199D01*
X868776Y507298D01*
X869107Y507368D01*
X869460Y507411D01*
X869836Y507425D01*
X873918Y507425D01*
X874246Y507436D01*
X874532Y507471D01*
X874774Y507528D01*
X874973Y507609D01*
X875128Y507721D01*
X875239Y507876D01*
X875306Y508072D01*
X875328Y508309D01*
X875313Y508552D01*
X875267Y508826D01*
X876247Y508826D01*
X876309Y508527D01*
X876353Y508224D01*
X876379Y507918D01*
X876388Y507609D01*
X876380Y507397D01*
X876359Y507200D01*
X876323Y507019D01*
X876273Y506852D01*
X876208Y506700D01*
X876129Y506563D01*
X876036Y506441D01*
X875928Y506334D01*
X875805Y506240D01*
X875665Y506157D01*
X875510Y506084D01*
X875338Y506022D01*
X875149Y505971D01*
X874945Y505931D01*
X874487Y505883D01*
X874487Y505831D01*
X874990Y505516D01*
X875212Y505350D01*
X875414Y505177D01*
X875597Y504998D01*
X875759Y504813D01*
X875901Y504622D01*
X876024Y504425D01*
X876130Y504219D01*
X876221Y504002D01*
X876299Y503775D01*
X876362Y503537D01*
X876412Y503288D01*
X876447Y503028D01*
X876468Y502757D01*
X876475Y502476D01*
X876463Y502130D01*
X876428Y501807D01*
X876369Y501505D01*
X876287Y501226D01*
X876181Y500969D01*
X876052Y500734D01*
X875899Y500521D01*
X875722Y500330D01*
X875525Y500162D01*
X875310Y500016D01*
X875078Y499893D01*
X874829Y499792D01*
X874561Y499713D01*
X874277Y499657D01*
X873975Y499623D01*
X873655Y499612D01*
G37*
%LPC*%
G36*
X873681Y501232D02*
X873868Y501239D01*
X874045Y501258D01*
X874210Y501291D01*
X874364Y501336D01*
X874508Y501395D01*
X874640Y501466D01*
X874762Y501551D01*
X874872Y501648D01*
X874971Y501758D01*
X875056Y501879D01*
X875129Y502010D01*
X875188Y502153D01*
X875234Y502307D01*
X875267Y502472D01*
X875286Y502648D01*
X875293Y502835D01*
X875287Y503049D01*
X875268Y503257D01*
X875194Y503654D01*
X875071Y504027D01*
X874899Y504377D01*
X874683Y504696D01*
X874431Y504980D01*
X874142Y505228D01*
X873817Y505441D01*
X873471Y505611D01*
X873120Y505733D01*
X872763Y505806D01*
X872402Y505831D01*
X871623Y505831D01*
X871658Y504105D01*
X871679Y503583D01*
X871724Y503127D01*
X871793Y502740D01*
X871886Y502419D01*
X872005Y502149D01*
X872153Y501912D01*
X872329Y501709D01*
X872534Y501539D01*
X872770Y501405D01*
X873040Y501309D01*
X873343Y501251D01*
X873681Y501232D01*
G37*
%LPD*%
G36*
X873506Y547105D02*
X872280Y547105D01*
X863959Y552755D01*
X863959Y554410D01*
X872262Y554410D01*
X872262Y556144D01*
X873506Y556144D01*
X873506Y554410D01*
X876300Y554410D01*
X876300Y552921D01*
X873506Y552921D01*
X873506Y547105D01*
G37*
%LPC*%
G36*
X872262Y548559D02*
X872262Y552921D01*
X865737Y552921D01*
X866201Y552676D01*
X866779Y552334D01*
X871439Y549172D01*
X872087Y548699D01*
X872262Y548559D01*
G37*
%LPD*%
G36*
X866823Y462166D02*
X866823Y463655D01*
X867060Y463673D01*
X867502Y463695D01*
X868444Y463725D01*
X868444Y463751D01*
X867989Y464034D01*
X867606Y464337D01*
X867442Y464497D01*
X867295Y464662D01*
X867166Y464833D01*
X867055Y465008D01*
X866960Y465192D01*
X866877Y465387D01*
X866807Y465592D01*
X866750Y465809D01*
X866705Y466036D01*
X866674Y466274D01*
X866654Y466522D01*
X866648Y466782D01*
X866660Y467159D01*
X866697Y467509D01*
X866757Y467834D01*
X866842Y468132D01*
X866951Y468404D01*
X867084Y468650D01*
X867242Y468870D01*
X867423Y469064D01*
X867633Y469233D01*
X867874Y469380D01*
X868147Y469504D01*
X868451Y469605D01*
X868787Y469684D01*
X869155Y469741D01*
X869554Y469775D01*
X869985Y469786D01*
X876300Y469786D01*
X876300Y468201D01*
X870292Y468201D01*
X869849Y468189D01*
X869460Y468155D01*
X869122Y468097D01*
X868838Y468017D01*
X868597Y467911D01*
X868393Y467778D01*
X868225Y467618D01*
X868093Y467430D01*
X867994Y467205D01*
X867922Y466933D01*
X867880Y466614D01*
X867866Y466248D01*
X867878Y465971D01*
X867914Y465708D01*
X867975Y465461D01*
X868060Y465229D01*
X868170Y465013D01*
X868304Y464811D01*
X868462Y464624D01*
X868645Y464452D01*
X868849Y464298D01*
X869073Y464165D01*
X869315Y464052D01*
X869576Y463959D01*
X869856Y463888D01*
X870154Y463836D01*
X870472Y463806D01*
X870808Y463795D01*
X876300Y463795D01*
X876300Y462219D01*
X868847Y462219D01*
X867513Y462206D01*
X867088Y462189D01*
X866823Y462166D01*
G37*
G36*
X866823Y510010D02*
X866823Y511499D01*
X867060Y511516D01*
X867502Y511538D01*
X868444Y511569D01*
X868444Y511595D01*
X867989Y511877D01*
X867606Y512181D01*
X867442Y512341D01*
X867295Y512506D01*
X867166Y512676D01*
X867055Y512852D01*
X866960Y513036D01*
X866877Y513231D01*
X866807Y513436D01*
X866750Y513652D01*
X866705Y513879D01*
X866674Y514117D01*
X866654Y514366D01*
X866648Y514626D01*
X866660Y515002D01*
X866697Y515353D01*
X866757Y515677D01*
X866842Y515976D01*
X866951Y516248D01*
X867084Y516494D01*
X867242Y516714D01*
X867423Y516907D01*
X867633Y517077D01*
X867874Y517223D01*
X868147Y517348D01*
X868451Y517449D01*
X868787Y517528D01*
X869155Y517585D01*
X869554Y517619D01*
X869985Y517630D01*
X876300Y517630D01*
X876300Y516045D01*
X870292Y516045D01*
X869849Y516033D01*
X869460Y515999D01*
X869122Y515941D01*
X868838Y515861D01*
X868597Y515755D01*
X868393Y515622D01*
X868225Y515462D01*
X868093Y515274D01*
X867994Y515049D01*
X867922Y514777D01*
X867880Y514458D01*
X867866Y514091D01*
X867878Y513814D01*
X867914Y513552D01*
X867975Y513305D01*
X868060Y513073D01*
X868170Y512856D01*
X868304Y512654D01*
X868462Y512468D01*
X868645Y512296D01*
X868849Y512142D01*
X869073Y512009D01*
X869315Y511896D01*
X869576Y511803D01*
X869856Y511731D01*
X870154Y511680D01*
X870472Y511649D01*
X870808Y511639D01*
X876300Y511639D01*
X876300Y510062D01*
X868847Y510062D01*
X867513Y510049D01*
X867088Y510033D01*
X866823Y510010D01*
G37*
G36*
X873138Y448171D02*
X866823Y448171D01*
X866823Y449756D01*
X872832Y449756D01*
X873274Y449768D01*
X873664Y449802D01*
X874001Y449860D01*
X874286Y449940D01*
X874526Y450046D01*
X874730Y450179D01*
X874898Y450339D01*
X875030Y450527D01*
X875130Y450752D01*
X875201Y451024D01*
X875244Y451343D01*
X875258Y451710D01*
X875246Y451987D01*
X875209Y452249D01*
X875148Y452496D01*
X875063Y452728D01*
X874953Y452945D01*
X874819Y453147D01*
X874661Y453333D01*
X874478Y453505D01*
X874274Y453659D01*
X874051Y453792D01*
X873809Y453905D01*
X873548Y453998D01*
X873268Y454070D01*
X872969Y454121D01*
X872651Y454152D01*
X872315Y454162D01*
X866823Y454162D01*
X866823Y455739D01*
X874277Y455739D01*
X875610Y455752D01*
X876036Y455768D01*
X876300Y455791D01*
X876300Y454302D01*
X876064Y454285D01*
X875621Y454263D01*
X874680Y454232D01*
X874680Y454206D01*
X875134Y453924D01*
X875517Y453620D01*
X875682Y453460D01*
X875828Y453295D01*
X875957Y453125D01*
X876068Y452949D01*
X876163Y452765D01*
X876246Y452570D01*
X876316Y452365D01*
X876373Y452149D01*
X876418Y451922D01*
X876450Y451684D01*
X876469Y451435D01*
X876475Y451175D01*
X876463Y450799D01*
X876427Y450448D01*
X876366Y450124D01*
X876281Y449825D01*
X876172Y449553D01*
X876039Y449307D01*
X875882Y449087D01*
X875700Y448894D01*
X875490Y448724D01*
X875249Y448578D01*
X874976Y448453D01*
X874672Y448352D01*
X874336Y448273D01*
X873968Y448216D01*
X873569Y448182D01*
X873138Y448171D01*
G37*
G36*
X866823Y432260D02*
X866823Y433749D01*
X868759Y433819D01*
X868759Y433854D01*
X868198Y434049D01*
X867734Y434259D01*
X867366Y434483D01*
X867219Y434600D01*
X867095Y434721D01*
X866990Y434850D01*
X866899Y434991D01*
X866823Y435146D01*
X866760Y435312D01*
X866711Y435492D01*
X866676Y435683D01*
X866655Y435888D01*
X866648Y436105D01*
X866670Y436422D01*
X866736Y436744D01*
X868181Y436744D01*
X868143Y436573D01*
X868115Y436376D01*
X868093Y435903D01*
X868106Y435665D01*
X868146Y435442D01*
X868212Y435233D01*
X868305Y435039D01*
X868423Y434859D01*
X868569Y434693D01*
X868740Y434542D01*
X868938Y434406D01*
X869161Y434285D01*
X869407Y434180D01*
X869675Y434091D01*
X869967Y434018D01*
X870281Y433962D01*
X870618Y433921D01*
X870978Y433897D01*
X871360Y433889D01*
X876300Y433889D01*
X876300Y432312D01*
X869030Y432312D01*
X867979Y432299D01*
X866823Y432260D01*
G37*
G36*
X876300Y458175D02*
X866823Y458175D01*
X866823Y459751D01*
X876300Y459751D01*
X876300Y458175D01*
G37*
G36*
X864809Y458175D02*
X863302Y458175D01*
X863302Y459751D01*
X864809Y459751D01*
X864809Y458175D01*
G37*
D10*
X787400Y660400D02*
X787400Y254000D01*
X965200Y254000D01*
X965200Y660400D01*
X787400Y660400D01*
M02*
